<svg version="1.1" xmlns="http://www.w3.org/2000/svg" xmlns:xlink="http://www.w3.org/1999/xlink" width="821" height="483" viewBox="0,0,821,483"><defs><linearGradient x1="171.0815" y1="106.44416" x2="171.0815" y2="293.94416" gradientUnits="userSpaceOnUse" id="color-1"><stop offset="0" stop-color="#d7cfff"/><stop offset="1" stop-color="#ffffff"/></linearGradient><linearGradient x1="479.5815" y1="110.44416" x2="479.5815" y2="300.44416" gradientUnits="userSpaceOnUse" id="color-2"><stop offset="0" stop-color="#d7cfff"/><stop offset="1" stop-color="#ffffff"/></linearGradient><linearGradient x1="325.5815" y1="106.44416" x2="325.5815" y2="293.94416" gradientUnits="userSpaceOnUse" id="color-3"><stop offset="0" stop-color="#d7cfff"/><stop offset="1" stop-color="#ffffff"/></linearGradient></defs><g transform="translate(105.6178,86.52563)"><g data-paper-data="{&quot;isPaintingLayer&quot;:true}" fill-rule="nonzero" stroke="none" stroke-width="0" stroke-linecap="butt" stroke-linejoin="miter" stroke-miterlimit="10" stroke-dasharray="" stroke-dashoffset="0" style="mix-blend-mode: normal"><path d="M-105.6178,396.47437v-483h821v483z" fill="#ffeb79"/><path d="M91,358.46114v-405.92157h466v405.92157z" fill="#ffe766"/><path d="M-0.6178,370.28613l94,-45.39608l470,1.12552l81,44.27056z" fill="#e5d36c"/><path d="M647.3822,-8.10995l-88,41.36973l-463,0.02635l-94,-41.39608z" data-paper-data="{&quot;index&quot;:null}" fill="#e5d36c"/><path d="M247.5733,328.44416v-235.5h153.5v235.5z" fill="#ffee91"/><path d="M298.93815,227.525v-4h0.5v4z" fill="#ffee91"/><path d="M103.0733,307.44416v-213.5h133v213.5z" fill="#ffee91"/><path d="M412.07331,309.44416v-213.5h133v213.5z" fill="#ffee91"/><path d="M116.57331,293.94416v-187.5h109.01639v187.5z" fill="url(#color-1)"/><path d="M425.07331,300.44416v-190h109.01639v190z" fill="url(#color-2)"/><path d="M116.72624,295.8166v-48.5h108v48.5z" fill="#226e35"/><path d="M425.72624,299.8166v-48.5h108v48.5z" fill="#226e35"/><path d="M259.07331,293.94416v-187.5h133.01639v187.5z" fill="url(#color-3)"/><path d="M259.22624,327.3166v-78h132.5v78z" fill="#226e35"/><path d="M116.65834,295.43738v-186.5h108.5v186.5z" fill-opacity="0.28235" fill="#e5d7f5"/><path d="M425.65834,298.43737v-186.5h108.5v186.5z" fill-opacity="0.28235" fill="#e5d7f5"/></g></g></svg>