<svg version="1.1" xmlns="http://www.w3.org/2000/svg" xmlns:xlink="http://www.w3.org/1999/xlink" width="122.53021" height="237.64825" viewBox="0,0,122.53021,237.64825"><g transform="translate(-264.08492,-107.39057)"><g data-paper-data="{&quot;isPaintingLayer&quot;:true}" fill-rule="nonzero" stroke="none" stroke-linecap="butt" stroke-linejoin="miter" stroke-miterlimit="10" stroke-dasharray="" stroke-dashoffset="0" style="mix-blend-mode: normal"><path d="M356.76761,253.92588c0,1.15213 -0.02934,4.14456 -0.78803,6.20718c-0.75232,2.04528 -2.23242,3.15657 -2.61304,5.28959c-0.22715,1.27296 0.01049,3.09088 -0.15818,4.22133c-0.52542,3.52128 -1.67548,5.50185 -5.9716,5.50185c-10.31694,0 -27.8301,-12.19019 -27.8301,-17.29032c0,-5.10013 8.36353,-13.16422 18.68048,-13.16422c10.31694,0 18.68048,4.13447 18.68048,9.2346z" fill="#cc2727" stroke-width="0"/><path d="M300.1221,246.73673c10.31694,0 18.68047,8.06409 18.68047,13.16422c0,5.10013 -17.51315,17.29032 -27.83009,17.29032c-4.29612,0 -5.44619,-1.98056 -5.9716,-5.50185c-0.16868,-1.13044 0.06897,-2.94836 -0.15818,-4.22133c-0.38062,-2.13303 -1.86073,-3.24431 -2.61304,-5.28959c-0.75869,-2.06261 -0.78803,-5.05505 -0.78803,-6.20718c0,-5.10013 8.36354,-9.2346 18.68048,-9.2346z" data-paper-data="{&quot;index&quot;:null}" fill="#cc2727" stroke-width="0"/><path d="M327.58544,258.10037c0,4.39317 -2.4699,7.95455 -7.35839,7.95455c-4.88849,0 -7.1451,-3.56137 -7.1451,-7.95455c0,-4.39317 2.25661,-7.95455 7.1451,-7.95455c4.88849,0 7.35839,3.56137 7.35839,7.95455z" fill="#b72323" stroke-width="0"/><path d="M385.70687,124.92295c1.92644,2.51204 0.76186,25.30362 -3.24104,40.68634c-4.4138,16.96177 -11.90886,26.59891 -14.1284,28.30104c-4.23246,3.2458 -25.67292,-26.44584 -29.72355,-31.72777c-4.05063,-5.28194 -9.13554,-17.35056 -4.90308,-20.59636c4.23246,-3.2458 47.94545,-21.94518 51.99608,-16.66325z" data-paper-data="{&quot;index&quot;:null}" fill="#ffe466" stroke-width="0"/><path d="M323.75232,141.04892c2.87328,4.49368 -6.01943,14.10762 -11.62736,17.69335c-5.60793,3.58574 -35.88212,24.19546 -38.7554,19.70177c-1.50678,-2.35653 -5.26975,-13.97077 -3.64017,-31.42149c1.47787,-15.82616 8.14861,-37.65077 10.81569,-39.35611c5.60793,-3.58574 40.33397,28.88879 43.20725,33.38248z" data-paper-data="{&quot;index&quot;:null}" fill="#ffe466" stroke-width="0"/><path d="M373.06882,333.37215c0,6.44332 -22.75885,11.66667 -50.83333,11.66667c-28.07448,0 -50.83333,-5.22335 -50.83333,-11.66667c0,-6.44332 -3.23878,-100.30262 49.5,-100c51.41129,0.29501 52.16666,93.55668 52.16666,100z" fill="#ffe466" stroke-width="0"/><path d="M374.54219,198.58783c0,9.02525 3.17961,13.59755 -0.13889,21.25192c-8.70205,20.07191 -32.499,33.75152 -54.24092,33.75152c-24.11764,0 -48.39502,-12.89954 -55.51551,-36.56145c-1.74649,-5.80372 1.1357,-12.00278 1.1357,-18.44198c0,-32.69204 24.34668,-59.19417 54.37982,-59.19417c30.03314,0 54.37981,26.50214 54.37981,59.19418z" fill="#ffe466" stroke-width="0"/><path d="M347.73148,179.55208c-1.5,0 -1.5,-1.5 -1.5,-1.5l0.00013,-0.31343c-0.05871,-4.44615 -1.09096,-8.52382 -1.47472,-12.91251c-0.92722,-10.60404 -1.96055,-21.74016 -6.39096,-31.48668c0,0 -0.6207,-1.36555 0.74484,-1.98625c1.36555,-0.62071 1.98626,0.74484 1.98626,0.74484c4.95049,10.89149 4.93579,22.46358 6.786,34.07498c0.62824,3.94266 1.29478,7.50828 1.34831,11.52582l0.00014,0.35323c0,0 0,1.5 -1.5,1.5z" fill="#2b2268" stroke-width="0.5"/><path d="M357.39814,183.55208c-1.5,0 -1.5,-1.5 -1.5,-1.5l0.05771,-0.25458c-1.3043,-4.5736 -1.66792,-9.37854 -1.75707,-14.10595c-0.6214,-7.96489 -1.18759,-16.45062 -3.24787,-24.24507c-1.45137,-5.49082 -2.30069,-10.94548 -3.55942,-16.50082c-0.59982,-2.64726 -1.79278,-4.83481 -1.8267,-7.56024c0,0 0,-1.5 1.5,-1.5c1.5,0 1.5,1.5 1.5,1.5c-0.04133,2.40245 1.21512,4.5421 1.75201,6.89501c1.25784,5.51244 2.08618,10.93068 3.52855,16.37727c2.12327,8.01775 2.68646,16.69584 3.34998,24.89021c0.06152,4.48772 0.40287,9.08621 1.64508,13.42544l0.05771,1.07875c0,0 0,1.5 -1.5,1.5z" fill="#2b2268" stroke-width="0.5"/><path d="M365.9871,175.1968c-1.47806,0.25562 -1.73368,-1.22244 -1.73368,-1.22244l-0.40551,-2.41179c-1.94554,-4.3797 -1.9276,-9.26513 -2.60973,-14.00271c-1.26921,-8.81507 -2.87881,-18.51411 -1.65829,-27.38659c0,0 0.21213,-1.48492 1.69706,-1.27279c1.48492,0.21213 1.27279,1.69706 1.27279,1.69706c-1.27028,8.51743 0.43573,18.06332 1.65776,26.53438c0.66276,4.59418 0.62587,9.31971 2.51105,13.55919l0.49099,2.77201c0,0 0.25562,1.47806 -1.22244,1.73368z" fill="#2b2268" stroke-width="0.5"/></g></g></svg>