<svg version="1.1" xmlns="http://www.w3.org/2000/svg" xmlns:xlink="http://www.w3.org/1999/xlink" width="122.44558" height="224.44032" viewBox="0,0,122.44558,224.44032"><g transform="translate(-255.98503,-122.04315)"><g data-paper-data="{&quot;isPaintingLayer&quot;:true}" fill-rule="nonzero" stroke-linecap="butt" stroke-linejoin="miter" stroke-miterlimit="10" stroke-dasharray="" stroke-dashoffset="0" style="mix-blend-mode: normal"><path d="M269.70811,136.96973c2.78869,-1.49822 25.09778,3.3098 39.63847,9.73005c16.03331,7.0793 24.34236,16.02412 25.66613,18.48811c2.52431,4.69859 -30.22395,21.09488 -36.08761,24.24512c-5.86365,3.15024 -18.59201,6.23193 -21.11632,1.53334c-2.52431,-4.69859 -13.96433,-50.84638 -8.10068,-53.99662z" data-paper-data="{&quot;index&quot;:null}" fill="#ffe466" stroke="none" stroke-width="0"/><path d="M350.40303,122.37291c2.26337,1.82149 8.0283,23.85471 9.37055,39.67584c1.48004,17.44518 -1.63036,28.83018 -2.88941,31.10561c-2.40088,4.33904 -28.09996,-17.5832 -32.85904,-21.41315c-4.75908,-3.82994 -12.32897,-13.81282 -9.92808,-18.15186c2.40089,-4.33904 31.5469,-35.04639 36.30598,-31.21644z" data-paper-data="{&quot;index&quot;:null}" fill="#ffe466" stroke="none" stroke-width="0"/><path d="M277.19689,338.68117c-0.60215,-6.41512 -8.56563,-99.33924 42.5931,-104.43748c14.54616,-1.4496 8.7366,-11.04477 16.96546,-1.25309c21.45925,25.53479 41.22794,91.55256 41.66318,96.18956c0.60214,6.41512 -21.56897,13.74249 -49.52059,16.36612c-27.95162,2.62364 -51.099,-0.44998 -51.70115,-6.8651z" data-paper-data="{&quot;index&quot;:null}" fill="#ffe466" stroke="none" stroke-width="0"/><path d="M281.45316,261.58179c-0.47662,-5.07781 3.69707,-9.62221 9.3222,-10.1502c5.62513,-0.528 10.93881,7.07278 11.41543,12.15059c0.47662,5.07781 -7.93291,18.11093 -13.55804,18.63892c-2.34238,0.21987 -3.15452,-1.69318 -3.77007,-5.17216c-0.19761,-1.11687 -0.23793,-2.939 -0.48074,-4.19476c-0.40686,-2.1042 -1.31771,-3.13488 -1.91904,-5.13271c-0.60642,-2.01477 -0.90207,-4.9926 -1.00974,-6.13969z" data-paper-data="{&quot;index&quot;:null}" fill="#cc2727" stroke="none" stroke-width="0"/><path d="M314.68772,251.2415c7.24157,-0.67972 13.49841,2.88564 13.97503,7.96345c0.10767,1.14708 0.36673,4.12836 0.02695,6.23193c-0.33691,2.0859 -1.27197,3.28983 -1.33979,5.4386c-0.04047,1.28237 0.29623,3.07667 0.28347,4.21328c-0.03972,3.54049 -0.66188,5.58816 -3.67737,5.8712c-7.24157,0.67972 -20.67344,-10.30329 -21.15006,-15.3811c-0.47662,-5.07781 4.64022,-13.65763 11.88179,-14.33735z" data-paper-data="{&quot;index&quot;:null}" fill="#cc2727" stroke="none" stroke-width="0"/><path d="M297.84701,264.23584c-0.41055,-4.37396 0.99028,-8.08247 4.42156,-8.40454c3.43129,-0.32207 5.34805,3.07505 5.7586,7.44899c0.41055,4.37395 -0.84057,8.06841 -4.27185,8.39048c-3.43129,0.32207 -5.49776,-3.061 -5.90831,-7.43494z" data-paper-data="{&quot;index&quot;:null}" fill="#b72323" stroke="none" stroke-width="0"/><path d="M283.13964,224.34417c0,-19.32997 16.93856,-35 37.83333,-35c20.89477,0 37.83333,15.67003 37.83333,35c0,19.32997 -34.34297,34.45611 -55.23774,34.45611c-10.85216,0 -15.94235,-4.08023 -18.32844,-10.71049c-0.1892,-0.52574 5.98395,-0.88622 5.82723,-1.44326c-1.67231,-5.94395 -7.92771,-13.80789 -7.92771,-22.30235z" data-paper-data="{&quot;index&quot;:null}" fill-opacity="0.23529" fill="#000000" stroke="none" stroke-width="0"/><path d="M259.7928,201.81874c0,-30.77171 22.91655,-55.71712 51.18555,-55.71712c28.269,0 51.18556,24.9454 51.18556,55.71711c0,6.06096 2.71289,11.89589 1.06899,17.3587c-6.70224,22.27202 -29.55357,34.41384 -52.25454,34.41384c-20.46481,0 -42.86393,-12.87607 -51.05482,-31.76896c-3.12357,-7.20476 -0.13073,-11.50848 -0.13073,-20.00359z" data-paper-data="{&quot;index&quot;:null}" fill="#ffe466" stroke="none" stroke-width="0"/><g data-paper-data="{&quot;index&quot;:null}"><path d="M279.16913,199.30036c0,6.68223 -2.7732,12.09923 -6.19412,12.09923c-3.42092,0 -6.19412,-5.417 -6.19412,-12.09923c0,-6.68223 2.7732,-12.09924 6.19412,-12.09924c3.42091,0 6.19412,5.41701 6.19412,12.09924z" data-paper-data="{&quot;index&quot;:null}" fill="#ffffff" stroke="#ffffff" stroke-width="2"/><path d="M275.89174,209.01011c-1.66418,0 -3.01327,-3.56878 -3.01327,-7.97108c0,-4.40231 1.34909,-7.97108 3.01327,-7.97108c1.66418,0 3.01327,3.56878 3.01327,7.97108c0,4.4023 -1.34909,7.97108 -3.01327,7.97108z" fill="#3f9fff" stroke="none" stroke-width="0.5"/><path d="M277.78092,198.05326c-0.6479,0 -1.17313,-0.94871 -1.17313,-2.11899c0,-1.17029 0.52523,-2.11899 1.17313,-2.11899c0.6479,0 1.17313,0.94871 1.17313,2.11899c0,1.17029 -0.52523,2.11899 -1.17313,2.11899z" fill="#ffffff" stroke="none" stroke-width="0.5"/></g><path d="M311.76628,231.71119c0,4.08672 -1.94984,11.13712 -11.62781,14.44842c-12.81013,4.38296 -35.02263,-1.04421 -41.43867,-12.80743c-4.06549,-7.45369 -2.71386,-16.89133 -1.37998,-18.55843c5.38261,-6.72726 11.88331,-10.68807 26.61889,-10.68807c22.97499,0 27.82756,14.96206 27.82756,27.6055z" data-paper-data="{&quot;index&quot;:null}" fill="#ccb449" stroke="none" stroke-width="0"/><path d="M260.6977,215.49708c0,-1.45531 4.02985,-4.00045 8.15662,-4.03546c4.33018,-0.03673 8.76709,2.50842 8.76709,4.03546c0,2.98234 -3.78851,7.6 -8.46186,7.6c-4.67336,0 -8.46186,-4.61766 -8.46186,-7.6z" data-paper-data="{&quot;index&quot;:null}" fill="#2b323a" stroke="#2b323a" stroke-width="2"/><path d="M274.48079,213.09393c1.20565,0.3995 2.11619,1.06425 2.03373,1.48474c-0.08246,0.42049 -1.12667,0.43751 -2.33232,0.038c-1.20565,-0.39951 -2.11619,-1.06425 -2.03373,-1.48474c0.08245,-0.42049 1.12667,-0.43751 2.33232,-0.038z" data-paper-data="{&quot;index&quot;:null}" fill="#ffffff" stroke="none" stroke-width="0"/><g data-paper-data="{&quot;index&quot;:null}"><path d="M304.53803,187.81416c7.29016,0 13.2,6.39103 13.2,14.27478c0,7.88375 -5.90984,14.27479 -13.2,14.27479c-7.29016,0 -13.2,-6.39104 -13.2,-14.27479c0,-7.88375 5.90984,-14.27478 13.2,-14.27478z" fill="#f1f6ff" stroke="#f1f6ff" stroke-width="2"/><path d="M298.20518,213.43701c-3.54645,0 -6.42143,-4.21048 -6.42143,-9.40435c0,-5.19388 2.87498,-9.40435 6.42143,-9.40435c3.54645,0 6.42142,4.21048 6.42142,9.40435c0,5.19387 -2.87497,9.40435 -6.42142,9.40435z" fill="#3f9fff" stroke="none" stroke-width="0.5"/><path d="M302.28826,200.65287c-1.38071,0 -2.5,-1.11929 -2.5,-2.5c0,-1.38071 1.11929,-2.5 2.5,-2.5c1.38071,0 2.5,1.11929 2.5,2.5c0,1.38071 -1.11929,2.5 -2.5,2.5z" fill="#ffffff" stroke="none" stroke-width="0.5"/></g><path d="M339.50406,138.75053c0.9429,1.74339 2.03344,20.10081 1.48151,32.92899c-0.60859,14.14501 -2.95117,22.86116 -3.72356,24.52264c-1.47288,3.16829 -12.08533,-17.61932 -14.06791,-21.28506c-1.98258,-3.66574 -4.84283,-12.60967 -3.36996,-15.77797c1.47288,-3.1683 17.69734,-24.05435 19.67992,-20.3886z" data-paper-data="{&quot;index&quot;:null}" fill="#fff5c7" stroke="none" stroke-width="0"/></g></g></svg>