<svg version="1.1" xmlns="http://www.w3.org/2000/svg" xmlns:xlink="http://www.w3.org/1999/xlink" width="854" height="711" viewBox="0,0,854,711"><defs><radialGradient cx="312.19443" cy="160.13759" r="427" gradientUnits="userSpaceOnUse" id="color-1"><stop offset="0" stop-color="#ffffff" stop-opacity="0.58431"/><stop offset="1" stop-color="#ffffff" stop-opacity="0"/></radialGradient></defs><g transform="translate(114.80557,195.36241)"><g data-paper-data="{&quot;isPaintingLayer&quot;:true}" fill-rule="nonzero" stroke="none" stroke-linecap="butt" stroke-linejoin="miter" stroke-miterlimit="10" stroke-dasharray="" stroke-dashoffset="0" style="mix-blend-mode: normal"><path d="M-114.80557,515.63759v-711h854v711z" fill="url(#color-1)" stroke-width="0"/><path d="M299.47567,150.73652c-2.43575,1.85186 -4.28761,-0.5839 -4.28761,-0.5839l0.02046,-0.23253c-3.0629,-2.09651 -5.3184,-4.4057 -8.04917,-6.83751c-7.27042,-6.47446 -15.19747,-11.48949 -19.39504,-20.17447c-5.63506,4.37106 -11.01259,9.50455 -16.16518,14.29656c-1.11924,1.04092 -2.0342,2.30895 -3.25172,3.233c-0.34758,0.26379 -1.46062,-0.18721 -1.29127,0.21493c0.26867,0.63797 1.37313,0.48086 1.81032,1.01757c2.59714,3.1883 5.5672,7.48133 7.9994,10.89614c6.54516,9.18937 10.75602,18.37424 19.13563,26.20155c6.8583,5.89184 13.85325,12.26893 19.6739,19.20075c0.91215,1.08628 1.68022,2.28633 2.48528,3.45419c0.64917,0.94172 0.7378,2.76314 1.87632,2.87296c1.21006,0.11672 1.93201,-1.50382 2.71991,-2.42961c2.39027,-2.8086 4.43881,-5.90214 6.89824,-8.65037c11.59076,-12.95181 21.09641,-27.6744 32.23128,-41.08359c8.62963,-10.38977 18.29443,-19.69126 27.34671,-29.68008c6.81889,-7.52437 13.15985,-15.45954 20.253,-22.73421c4.85206,-4.97624 9.36087,-10.23384 14.04369,-15.3621c2.2713,-2.48735 5.7109,-7.07584 8.47977,-9.38192c-8.67632,-3.48719 -17.74983,-5.75737 -26.68008,-8.43755c-2.53492,-0.76079 -6.23203,-3.26906 -9.06894,-2.86695c-3.03952,0.43083 -7.50722,5.17129 -9.65804,7.08414c-9.1009,8.09393 -15.70658,18.64559 -24.06403,27.38473c-4.9491,6.61761 -10.74025,12.70754 -16.16291,18.8787c-1.72725,1.96567 -2.79277,4.43832 -4.41972,6.48778c-6.33099,7.97509 -12.93704,15.68941 -19.06708,23.78226l-1.69993,2.16583c0,0 -0.54683,0.69654 -1.42684,1.046c-0.0881,0.08013 -0.18339,0.15945 -0.28634,0.23772zM268.19095,114.68128c0.80584,-0.22262 1.45232,-0.16424 1.96638,0.0382c0.63501,0.10751 1.30897,0.46733 1.89942,1.30672c0.73044,1.03839 0.72696,1.949 0.47284,2.6591c3.22311,8.97578 11.86929,13.76924 18.72037,19.84581c2.24103,1.98768 4.0224,3.83963 6.35215,5.58061l0.42084,-0.53593c6.21179,-8.09631 12.78039,-15.90073 19.16412,-23.90616c1.05609,-1.32438 3.50731,-5.4457 4.52596,-6.61627c5.39672,-6.20152 11.20047,-12.25263 16.15797,-18.87288c8.57645,-8.92924 15.32862,-19.69922 24.65357,-27.98983c3.28532,-2.9209 8.29351,-7.88128 12.81815,-8.57164c4.22623,-0.64483 7.943,1.92012 11.76967,3.06321c9.39745,2.80717 18.90736,5.23814 28.01487,8.96135c1.52488,1.21622 4.159,1.74296 4.57465,3.64866c0.41651,1.90961 -1.63576,3.55845 -2.6365,5.23732c-3.1989,5.36655 -8.88392,9.93747 -13.02161,14.55565c-18.92744,21.12544 -39.32827,41.12865 -57.44942,62.95644c-11.18373,13.46804 -20.72576,28.2563 -32.38088,41.25704c-3.4489,3.84708 -8.60564,13.51597 -14.90002,13.07372c-3.3283,-0.23385 -6.28431,-6.0234 -8.27865,-8.41449c-5.61818,-6.73584 -12.47013,-12.92419 -19.11728,-18.63256c-3.58182,-3.34979 -7.44018,-6.84983 -10.23155,-10.92508c-4.32311,-6.31152 -7.37597,-13.26085 -12.30706,-19.19882c-2.06836,-2.49069 -3.82475,-5.23411 -5.50953,-7.99874c-0.98042,-1.60881 -2.95366,-2.95176 -2.9262,-4.83557c0.02219,-1.52236 5.48057,-6.7066 6.47147,-7.62786c5.93596,-5.51879 12.16691,-11.38613 18.69828,-16.23543c0.24189,-0.7328 0.81456,-1.47353 2.07798,-1.82257z" fill="#000000" stroke-width="0.5"/><path d="M299.69236,150.53043c0.88002,-0.34947 1.42653,-1.0467 1.42653,-1.0467l1.69881,-2.1685c6.13004,-8.09285 12.74985,-15.8861 19.08084,-23.86119c1.62695,-2.04946 2.7175,-4.54081 4.44475,-6.50647c5.42266,-6.17116 11.26234,-12.26649 16.21144,-18.8841c8.35745,-8.73914 14.98112,-19.28445 24.08203,-27.37838c2.15082,-1.91284 6.62299,-6.65088 9.66251,-7.08171c2.83691,-0.40211 6.54099,2.11078 9.07591,2.87157c8.93025,2.68018 18.01865,4.965 26.69498,8.45219c-2.76887,2.30608 -6.20726,6.89618 -8.47856,9.38353c-4.68283,5.12827 -9.18889,10.38988 -14.04096,15.36611c-7.09314,7.27467 -13.42649,15.22548 -20.24538,22.74984c-9.05228,9.98882 -18.75973,19.38635 -27.38936,29.77612c-11.13486,13.40919 -20.69998,28.13157 -32.29074,41.08338c-2.45944,2.74824 -4.51075,5.84052 -6.90102,8.64913c-0.7879,0.92579 -1.5111,2.54573 -2.72116,2.42901c-1.13851,-0.10982 -1.22978,-1.93261 -1.87896,-2.87433c-0.80506,-1.16786 -1.57655,-2.36989 -2.4887,-3.45617c-5.82065,-6.93182 -12.83666,-13.32808 -19.69495,-19.21992c-8.37961,-7.82731 -12.6039,-17.04101 -19.14906,-26.23039c-2.43221,-3.41481 -5.40396,-7.71877 -8.0011,-10.90707c-0.43719,-0.53671 -1.54172,-0.38061 -1.81039,-1.01858c-0.16936,-0.40214 0.94368,0.04876 1.29126,-0.21504c1.21752,-0.92404 2.13234,-2.19485 3.25158,-3.23576c5.15259,-4.79202 10.68192,-9.91456 16.31697,-14.28563c4.19757,8.68499 12.12461,13.6734 19.39503,20.14786c2.73078,2.43181 4.98228,4.72673 8.04519,6.82325l-0.02059,0.23218c0,0 1.85022,2.4319 4.28598,0.58005c0.10295,-0.07827 0.05903,-0.09414 0.14713,-0.17428z" data-paper-data="{&quot;noHover&quot;:false,&quot;origItem&quot;:[&quot;Path&quot;,{&quot;applyMatrix&quot;:true,&quot;segments&quot;:[[[299.47567,150.73652],[0.10295,-0.07827],[-2.43575,1.85186]],[295.18805,150.15263],[[295.20851,149.9201],[0,0],[-3.0629,-2.09651]],[[287.15934,143.08259],[2.73078,2.43181],[-7.27042,-6.47446]],[[267.7643,122.90811],[4.19757,8.68499],[-5.63506,4.37106]],[[251.59912,137.20468],[5.15259,-4.79202],[-1.11924,1.04092]],[[248.3474,140.43767],[1.21752,-0.92404],[-0.34758,0.26379]],[[247.05613,140.6526],[-0.16936,-0.40214],[0.26867,0.63797]],[[248.86645,141.67016],[-0.43719,-0.53671],[2.59714,3.1883]],[[256.86585,152.5663],[-2.43221,-3.41481],[6.54516,9.18937]],[[276.00149,178.76785],[-8.37961,-7.82731],[6.8583,5.89184]],[[295.67538,197.96861],[-5.82065,-6.93182],[0.91215,1.08628]],[[298.16067,201.42279],[-0.80506,-1.16786],[0.64917,0.94172]],[[300.03698,204.29575],[-1.13851,-0.10982],[1.21006,0.11672]],[[302.75689,201.86614],[-0.7879,0.92579],[2.39027,-2.8086]],[[309.65513,193.21576],[-2.45944,2.74824],[11.59076,-12.95181]],[[341.88641,152.13217],[-11.13486,13.40919],[8.62963,-10.38977]],[[369.23312,122.45209],[-9.05228,9.98882],[6.81889,-7.52437]],[[389.48611,99.71788],[-7.09314,7.27467],[4.85206,-4.97624]],[[403.52981,84.35578],[-4.68283,5.12827],[2.2713,-2.48735]],[[412.00958,74.97386],[-2.76887,2.30608],[-8.67632,-3.48719]],[[385.3295,66.5363],[8.93025,2.68018],[-2.53492,-0.76079]],[[376.26056,63.66936],[2.83691,-0.40211],[-3.03952,0.43083]],[[366.60251,70.75349],[2.15082,-1.91284],[-9.1009,8.09393]],[[342.53849,98.13822],[8.35745,-8.73914],[-4.9491,6.61761]],[[326.37558,117.01692],[5.42266,-6.17116],[-1.72725,1.96567]],[[321.95586,123.5047],[1.62695,-2.04946],[-6.33099,7.97509]],[[302.88878,147.28696],[6.13004,-8.09285],[0,0]],[301.18885,149.45279],[[299.76201,150.4988],[0.88002,-0.34947],[-0.0881,0.08013]]],&quot;closed&quot;:true}]}" fill="#00d115" stroke-width="0.5"/><text transform="translate(237.57638,243.80392) scale(0.98754,0.98754)" font-size="40" xml:space="preserve" fill="#000000" fill-rule="nonzero" stroke="none" stroke-width="1" stroke-linecap="butt" stroke-linejoin="miter" stroke-miterlimit="10" stroke-dasharray="" stroke-dashoffset="0" font-family="&quot;DrawnSansSerif-Regular&quot;, Sans Serif" font-weight="normal" text-anchor="start" style="mix-blend-mode: normal"><tspan x="0" dy="0">You Did</tspan></text><text transform="translate(220.24304,285.10159) scale(1.50655,1.50655)" font-size="40" xml:space="preserve" fill="#000000" fill-rule="nonzero" stroke="none" stroke-width="1" stroke-linecap="butt" stroke-linejoin="miter" stroke-miterlimit="10" stroke-dasharray="" stroke-dashoffset="0" font-family="&quot;DrawnSansSerif-Regular&quot;, Sans Serif" font-weight="normal" text-anchor="start" style="mix-blend-mode: normal"><tspan x="0" dy="0">Great!</tspan></text></g></g></svg>