<svg version="1.1" xmlns="http://www.w3.org/2000/svg" xmlns:xlink="http://www.w3.org/1999/xlink" width="122.44558" height="224.44032" viewBox="0,0,122.44558,224.44032"><g transform="translate(-255.98503,-122.04314)"><g data-paper-data="{&quot;isPaintingLayer&quot;:true}" fill-rule="nonzero" stroke-linecap="butt" stroke-linejoin="miter" stroke-miterlimit="10" stroke-dasharray="" stroke-dashoffset="0" style="mix-blend-mode: normal"><path d="M364.70754,136.96973c5.86365,3.15024 -5.57637,49.29803 -8.10068,53.99662c-2.52431,4.69859 -15.25267,1.6169 -21.11632,-1.53334c-5.86366,-3.15024 -38.61192,-19.54653 -36.08761,-24.24512c1.32377,-2.46399 9.63282,-11.40881 25.66613,-18.48811c14.54069,-6.42025 36.84978,-11.22827 39.63847,-9.73005z" data-paper-data="{&quot;index&quot;:null}" fill="#ffe466" stroke="none" stroke-width="0"/><path d="M320.31859,153.58935c2.40089,4.33904 -5.169,14.32192 -9.92808,18.15186c-4.75908,3.82995 -30.45816,25.75219 -32.85904,21.41315c-1.25905,-2.27543 -4.36945,-13.66043 -2.88941,-31.10561c1.34225,-15.82113 7.10718,-37.85435 9.37055,-39.67584c4.75908,-3.82995 33.90509,26.8774 36.30598,31.21644z" data-paper-data="{&quot;index&quot;:null}" fill="#ffe466" stroke="none" stroke-width="0"/><path d="M357.21875,338.68118c-0.60215,6.41512 -23.74953,9.48874 -51.70115,6.8651c-27.95162,-2.62363 -50.12273,-9.951 -49.52059,-16.36612c0.43524,-4.637 20.20393,-70.65477 41.66318,-96.18956c8.22886,-9.79168 2.4193,-0.19651 16.96546,1.25309c51.15873,5.09824 43.19525,98.02236 42.5931,104.43748z" fill="#ffe466" stroke="none" stroke-width="0"/><path d="M352.96248,261.58178c-0.10767,1.14709 -0.40332,4.12492 -1.00974,6.13969c-0.60133,1.99783 -1.51218,3.02851 -1.91904,5.13271c-0.24281,1.25576 -0.28313,3.07789 -0.48074,4.19476c-0.61555,3.47898 -1.42769,5.39203 -3.77007,5.17216c-5.62513,-0.52799 -14.03466,-13.56111 -13.55804,-18.63892c0.47662,-5.07781 5.7903,-12.67859 11.41543,-12.15059c5.62513,0.52799 9.79882,5.07239 9.3222,10.1502z" fill="#cc2727" stroke="none" stroke-width="0"/><path d="M319.7279,251.24151c7.24157,0.67972 12.35841,9.25954 11.88179,14.33735c-0.47662,5.07781 -13.90849,16.06082 -21.15006,15.3811c-3.01549,-0.28304 -3.63765,-2.33071 -3.67737,-5.8712c-0.01276,-1.13661 0.32394,-2.93091 0.28347,-4.21328c-0.06782,-2.14877 -1.00288,-3.3527 -1.33979,-5.4386c-0.33978,-2.10357 -0.08072,-5.08485 0.02695,-6.23193c0.47662,-5.07781 6.73346,-8.64317 13.97503,-7.96345z" data-paper-data="{&quot;index&quot;:null}" fill="#cc2727" stroke="none" stroke-width="0"/><path d="M336.56863,264.23583c-0.41055,4.37394 -2.47702,7.75701 -5.90831,7.43494c-3.43128,-0.32207 -4.6824,-4.01653 -4.27185,-8.39048c0.41055,-4.37394 2.32731,-7.77106 5.7586,-7.44899c3.43128,0.32207 4.83211,4.03058 4.42156,8.40454z" fill="#b72323" stroke="none" stroke-width="0"/><path d="M351.276,224.34418c0,8.49446 -6.2554,16.3584 -7.92771,22.30235c-0.15672,0.55704 6.01643,0.91752 5.82723,1.44326c-2.38609,6.63026 -7.47628,10.71049 -18.32844,10.71049c-20.89477,0 -55.23774,-15.12614 -55.23774,-34.45611c0,-19.32997 16.93856,-35 37.83333,-35c20.89477,0 37.83333,15.67003 37.83333,35z" fill-opacity="0.23529" fill="#000000" stroke="none" stroke-width="0"/><path d="M374.62283,201.81872c0,8.49511 2.99284,12.79883 -0.13073,20.00359c-8.19089,18.89289 -30.59001,31.76896 -51.05482,31.76896c-22.70097,0 -45.5523,-12.14182 -52.25454,-34.41384c-1.6439,-5.46281 1.06899,-11.29774 1.06899,-17.3587c0,-30.77171 22.91656,-55.71711 51.18556,-55.71711c28.269,0 51.18555,24.94541 51.18555,55.71712z" fill="#ffe466" stroke="none" stroke-width="0"/><g><path d="M361.44063,187.20112c3.42092,0 6.19412,5.41701 6.19412,12.09924c0,6.68223 -2.7732,12.09923 -6.19412,12.09923c-3.42092,0 -6.19412,-5.417 -6.19412,-12.09923c0,-6.68223 2.77321,-12.09924 6.19412,-12.09924z" data-paper-data="{&quot;index&quot;:null}" fill="#ffffff" stroke="#ffffff" stroke-width="2"/><path d="M355.51063,201.03903c0,-4.4023 1.34909,-7.97108 3.01327,-7.97108c1.66418,0 3.01327,3.56877 3.01327,7.97108c0,4.4023 -1.34909,7.97108 -3.01327,7.97108c-1.66418,0 -3.01327,-3.56878 -3.01327,-7.97108z" fill="#3f9fff" stroke="none" stroke-width="0.5"/><path d="M355.46159,195.93427c0,-1.17028 0.52523,-2.11899 1.17313,-2.11899c0.6479,0 1.17313,0.9487 1.17313,2.11899c0,1.17028 -0.52523,2.11899 -1.17313,2.11899c-0.6479,0 -1.17313,-0.9487 -1.17313,-2.11899z" fill="#ffffff" stroke="none" stroke-width="0.5"/></g><path d="M322.64937,231.71118c0,-12.64344 4.85257,-27.6055 27.82756,-27.6055c14.73558,0 21.23628,3.96081 26.61889,10.68807c1.33388,1.6671 2.68551,11.10474 -1.37998,18.55843c-6.41604,11.76322 -28.62854,17.19039 -41.43867,12.80743c-9.67797,-3.3113 -11.62781,-10.3617 -11.62781,-14.44842z" fill="#ccb449" stroke="none" stroke-width="0"/><path d="M373.71795,215.49708c0,2.98234 -3.7885,7.6 -8.46186,7.6c-4.67335,0 -8.46186,-4.61766 -8.46186,-7.6c0,-1.52704 4.43691,-4.07219 8.76709,-4.03546c4.12677,0.03501 8.15662,2.58015 8.15662,4.03546z" fill="#2b323a" stroke="#2b323a" stroke-width="2"/><path d="M362.26717,213.13193c0.08246,0.42049 -0.82808,1.08523 -2.03373,1.48474c-1.20565,0.39951 -2.24986,0.38249 -2.33232,-0.038c-0.08246,-0.42049 0.82808,-1.08524 2.03373,-1.48474c1.20565,-0.39951 2.24987,-0.38249 2.33232,0.038z" fill="#ffffff" stroke="none" stroke-width="0"/><g><path d="M343.07761,202.08894c0,7.88375 -5.90984,14.27479 -13.2,14.27479c-7.29016,0 -13.2,-6.39104 -13.2,-14.27479c0,-7.88375 5.90984,-14.27478 13.2,-14.27478c7.29016,0 13.2,6.39103 13.2,14.27478z" fill="#f1f6ff" stroke="#f1f6ff" stroke-width="2"/><path d="M329.78904,204.03266c0,-5.19387 2.87497,-9.40435 6.42142,-9.40435c3.54645,0 6.42143,4.21047 6.42143,9.40435c0,5.19387 -2.87498,9.40435 -6.42143,9.40435c-3.54645,0 -6.42142,-4.21048 -6.42142,-9.40435z" fill="#3f9fff" stroke="none" stroke-width="0.5"/><path d="M329.62738,198.15287c0,-1.38071 1.11929,-2.5 2.5,-2.5c1.38071,0 2.5,1.11929 2.5,2.5c0,1.38071 -1.11929,2.5 -2.5,2.5c-1.38071,0 -2.5,-1.11929 -2.5,-2.5z" fill="#ffffff" stroke="none" stroke-width="0.5"/></g><path d="M314.5915,159.13913c1.47287,3.1683 -1.38738,12.11223 -3.36996,15.77797c-1.98258,3.66574 -12.59503,24.45335 -14.06791,21.28506c-0.77239,-1.66148 -3.11497,-10.37763 -3.72356,-24.52264c-0.55193,-12.82818 0.53861,-31.1856 1.48151,-32.92899c1.98258,-3.66575 18.20704,17.2203 19.67992,20.3886z" data-paper-data="{&quot;index&quot;:null}" fill="#fff5c7" stroke="none" stroke-width="0"/></g></g></svg>