<svg version="1.1" xmlns="http://www.w3.org/2000/svg" xmlns:xlink="http://www.w3.org/1999/xlink" width="156.8738" height="231.33428" viewBox="0,0,156.8738,231.33428"><g transform="translate(-240.07663,-113.70454)"><g data-paper-data="{&quot;isPaintingLayer&quot;:true}" fill-rule="nonzero" stroke-linecap="butt" stroke-linejoin="miter" stroke-miterlimit="10" stroke-dasharray="" stroke-dashoffset="0" style="mix-blend-mode: normal"><path d="M376.16173,114.23543c2.32146,2.15228 5.00645,24.8151 3.64756,40.65191c-1.49838,17.46248 -7.26595,28.22284 -9.16762,30.274c-3.62631,3.91137 -29.75481,-21.75161 -34.63604,-26.2771c-4.88123,-4.52549 -11.92336,-15.56706 -8.29705,-19.47843c3.62631,-3.91137 43.57192,-29.69587 48.45315,-25.17039z" data-paper-data="{&quot;index&quot;:null}" fill="#ffe466" stroke="none" stroke-width="0"/><path d="M311.57651,141.20582c3.62631,3.91137 -3.41582,14.95295 -8.29705,19.47843c-4.88123,4.52549 -31.00973,30.18847 -34.63604,26.2771c-1.90167,-2.05116 -7.66924,-12.81153 -9.16762,-30.27401c-1.35889,-15.83682 1.3261,-38.49963 3.64756,-40.65191c4.88123,-4.52549 44.82684,21.25902 48.45315,25.17039z" data-paper-data="{&quot;index&quot;:null}" fill="#ffe466" stroke="none" stroke-width="0"/><path d="M364.59105,130.12843c1.88044,1.74339 4.05534,20.1008 2.95461,32.92898c-1.21372,14.14501 -5.8856,22.86116 -7.42599,24.52265c-2.93739,3.1683 -24.10208,-17.61931 -28.05599,-21.28505c-3.95391,-3.66574 -9.6582,-12.60968 -6.72081,-15.77798c2.93739,-3.1683 35.29426,-24.05434 39.24817,-20.38859z" data-paper-data="{&quot;index&quot;:null}" fill="#fff5c7" stroke="none" stroke-width="0"/><path d="M312.27553,151.97507c2.93739,3.1683 -2.76689,12.11223 -6.7208,15.77797c-3.95391,3.66574 -25.1186,24.45335 -28.05599,21.28506c-1.54039,-1.66148 -6.21227,-10.37763 -7.42599,-24.52264c-1.10073,-12.82818 1.07417,-31.1856 2.95461,-32.92899c3.95391,-3.66575 36.31078,17.2203 39.24817,20.3886z" data-paper-data="{&quot;index&quot;:null}" fill="#fff5c7" stroke="none" stroke-width="0"/><path d="M373.06882,333.37215c0,6.44332 -22.75885,11.66667 -50.83333,11.66667c-28.07448,0 -50.83333,-5.22335 -50.83333,-11.66667c0,-6.44332 -3.23878,-100.30262 49.5,-100c51.41129,0.29501 52.16666,93.55668 52.16666,100z" fill="#ffe466" stroke="none" stroke-width="0"/><path d="M358.7253,253.92588c0,1.15213 -0.02934,4.14456 -0.78803,6.20718c-0.75232,2.04528 -2.23242,3.15657 -2.61304,5.28959c-0.22715,1.27296 0.01049,3.09088 -0.15818,4.22133c-0.52542,3.52128 -1.67548,5.50185 -5.9716,5.50185c-10.31694,0 -27.8301,-12.19019 -27.8301,-17.29032c0,-5.10013 8.36353,-13.16422 18.68048,-13.16422c10.31694,0 18.68048,4.13447 18.68048,9.2346z" fill="#cc2727" stroke="none" stroke-width="0"/><path d="M302.07979,246.73673c10.31694,0 18.68047,8.06409 18.68047,13.16422c0,5.10013 -17.51315,17.29032 -27.83009,17.29032c-4.29612,0 -5.44619,-1.98056 -5.9716,-5.50185c-0.16868,-1.13044 0.06897,-2.94836 -0.15818,-4.22133c-0.38062,-2.13303 -1.86073,-3.24431 -2.61304,-5.28959c-0.75869,-2.06261 -0.78803,-5.05505 -0.78803,-6.20718c0,-5.10013 8.36354,-9.2346 18.68048,-9.2346z" data-paper-data="{&quot;index&quot;:null}" fill="#cc2727" stroke="none" stroke-width="0"/><path d="M327.58544,258.10037c0,4.39317 -2.4699,7.95455 -7.35839,7.95455c-4.88849,0 -7.1451,-3.56137 -7.1451,-7.95455c0,-4.39317 2.25661,-7.95455 7.1451,-7.95455c4.88849,0 7.35839,3.56137 7.35839,7.95455z" fill="#b72323" stroke="none" stroke-width="0"/><path d="M357.5947,224.34418c0,19.32997 -16.93856,35 -37.83333,35c-20.89477,0 -37.83333,-15.67003 -37.83333,-35c0,-19.32997 16.93856,-35 37.83333,-35c20.89477,0 37.83333,15.67003 37.83333,35z" fill-opacity="0.23529" fill="#000000" stroke="none" stroke-width="0"/><path d="M374.54219,198.58783c0,9.02525 3.17961,13.59755 -0.13889,21.25192c-8.70205,20.07191 -32.499,33.75152 -54.24092,33.75152c-24.11764,0 -48.39502,-12.89954 -55.51551,-36.56145c-1.74649,-5.80372 1.1357,-12.00278 1.1357,-18.44198c0,-32.69204 24.34668,-59.19417 54.37982,-59.19417c30.03314,0 54.37981,26.50214 54.37981,59.19418z" fill="#ffe466" stroke="none" stroke-width="0"/><path d="M356.79289,227.63412c0,7.48913 -6.53161,14.60763 -17.34045,16.55262c-5.19655,0.93509 -11.49628,-1.56105 -18.31762,-1.56105c-5.23005,0 -9.81538,2.26844 -13.97665,1.68342c-12.55507,-1.76508 -20.0428,-8.89107 -20.0428,-17.22014c0,-11.08966 12.86073,-21.35163 33.87048,-21.35163c21.00975,0 35.80704,10.80711 35.80704,21.89677z" fill="#ccb449" stroke="none" stroke-width="0"/><path d="M332.38248,211.14598c0,2.98234 -4.92487,7.6 -11,7.6c-6.07513,0 -11,-4.61766 -11,-7.6c0,-1.52704 5.76776,-4.07219 11.39679,-4.03546c5.3646,0.03501 10.60321,2.58015 10.60321,4.03546z" fill="#2b323a" stroke="#2b323a" stroke-width="2"/><path d="M312.98249,195.74358c0,7.88375 -5.90984,14.27479 -13.2,14.27479c-7.29016,0 -13.2,-6.39104 -13.2,-14.27479c0,-7.88375 5.90984,-14.27478 13.2,-14.27478c7.29016,0 13.2,6.39103 13.2,14.27478z" fill="#f1f6ff" stroke="#f1f6ff" stroke-width="2"/><path d="M342.70249,181.21836c7.29016,0 13.2,6.39104 13.2,14.27479c0,7.88375 -5.90984,14.27478 -13.2,14.27478c-7.29016,0 -13.2,-6.39103 -13.2,-14.27478c0,-7.88375 5.90985,-14.27479 13.2,-14.27479z" data-paper-data="{&quot;index&quot;:null}" fill="#ffffff" stroke="#ffffff" stroke-width="2"/><path d="M330.06534,197.54445c0,-5.19387 2.87498,-9.40435 6.42143,-9.40435c3.54645,0 6.42143,4.21047 6.42143,9.40435c0,5.19387 -2.87498,9.40435 -6.42143,9.40435c-3.54645,0 -6.42143,-4.21048 -6.42143,-9.40435z" fill="#3f9fff" stroke="none" stroke-width="0.5"/><path d="M299.69392,197.6873c0,-5.19387 2.87497,-9.40435 6.42142,-9.40435c3.54645,0 6.42143,4.21047 6.42143,9.40435c0,5.19387 -2.87498,9.40435 -6.42143,9.40435c-3.54645,0 -6.42142,-4.21048 -6.42142,-9.40435z" fill="#3f9fff" stroke="none" stroke-width="0.5"/><path d="M299.53226,191.80751c0,-1.38071 1.11929,-2.5 2.5,-2.5c1.38071,0 2.5,1.11929 2.5,2.5c0,1.38071 -1.11929,2.5 -2.5,2.5c-1.38071,0 -2.5,-1.11929 -2.5,-2.5z" fill="#ffffff" stroke="none" stroke-width="0.5"/><path d="M329.96083,191.5218c0,-1.38071 1.11929,-2.5 2.5,-2.5c1.38071,0 2.5,1.11929 2.5,2.5c0,1.38071 -1.11929,2.5 -2.5,2.5c-1.38071,0 -2.5,-1.11929 -2.5,-2.5z" fill="#ffffff" stroke="none" stroke-width="0.5"/><path d="M317.49703,208.78083c0.10719,0.42049 -1.07646,1.08523 -2.64375,1.48474c-1.56729,0.39951 -2.92471,0.38249 -3.0319,-0.038c-0.10719,-0.42049 1.07646,-1.08524 2.64375,-1.48474c1.56729,-0.39951 2.92472,-0.38249 3.0319,0.038z" fill="#ffffff" stroke="none" stroke-width="0"/><path d="M294.77582,268.09811c0,10.5659 -12.24483,19.13126 -27.34959,19.13126c-15.10476,0 -27.34959,-8.56536 -27.34959,-19.13126c0,-10.5659 12.24483,-19.13126 27.34959,-19.13126c15.10476,0 27.34959,8.56536 27.34959,19.13126z" fill="#ffe466" stroke="none" stroke-width="0"/><path d="M396.95043,268.74701c0,10.5659 -12.24483,19.13126 -27.34959,19.13126c-15.10476,0 -27.34959,-8.56536 -27.34959,-19.13126c0,-10.5659 12.24483,-19.13126 27.34959,-19.13126c15.10476,0 27.34959,8.56536 27.34959,19.13126z" fill="#ffe466" stroke="none" stroke-width="0"/></g></g></svg>