<svg version="1.1" xmlns="http://www.w3.org/2000/svg" xmlns:xlink="http://www.w3.org/1999/xlink" width="1210" height="766.33333" viewBox="0,0,1210,766.33333"><defs><radialGradient cx="313.07662" cy="197.96396" r="605" gradientUnits="userSpaceOnUse" id="color-1"><stop offset="0" stop-color="#665130" stop-opacity="0"/><stop offset="1" stop-color="#665130"/></radialGradient></defs><g transform="translate(291.92338,185.20273)"><g data-paper-data="{&quot;isPaintingLayer&quot;:true}" fill-rule="nonzero" stroke-linecap="butt" stroke-linejoin="miter" stroke-miterlimit="10" stroke-dasharray="" stroke-dashoffset="0" style="mix-blend-mode: normal"><path d="M-91.6178,387.4744v-464.17418h789v464.17418z" fill="#ffeb79" stroke="none" stroke-width="0"/><path d="M97.33646,350.9428v-390.10002h447.83678v390.10002z" fill="#ffe766" stroke="none" stroke-width="0"/><path d="M632.03265,-1.34051l-84.57004,39.75727l-444.95371,0.02532l-90.33618,-39.78259z" data-paper-data="{&quot;index&quot;:null}" fill="#e5d36c" stroke="none" stroke-width="0"/><path d="M252.13163,324.01783v-210.94458h137.49467v210.94458z" fill="#ffee91" stroke="none" stroke-width="0"/><path d="M297.16983,225.11013v-3.84409h0.48051v3.84409z" fill="#ffee91" stroke="none" stroke-width="0"/><path d="M122.05997,290.73994v-46.60962h103.7905v46.60962z" fill="#226e35" stroke="none" stroke-width="0"/><path d="M419.01612,294.58403v-46.60962h103.7905v46.60962z" fill="#226e35" stroke="none" stroke-width="0"/><path d="M262.97691,321.13476v-196.04872h117.46708v196.04872z" fill="#7f583d" stroke="none" stroke-width="0"/><path d="M121.99471,290.37549v-179.23082h104.27101v179.23082z" fill-opacity="0.28235" fill="#e5d7f5" stroke="none" stroke-width="0"/><path d="M418.95089,293.25856v-179.23082h104.27101v179.23082z" fill-opacity="0.28235" fill="#e5d7f5" stroke="none" stroke-width="0"/><path d="M400.1292,324.97886v-210.94458h137.49466v210.94458z" fill="#ffee91" stroke="none" stroke-width="0"/><path d="M410.97448,322.09577v-196.04872h117.46708v196.04872z" fill="#7f583d" stroke="none" stroke-width="0"/><path d="M109.41969,324.97886v-210.94458h137.49467v210.94458z" fill="#ffee91" stroke="none" stroke-width="0"/><path d="M120.26496,322.09577v-196.04872h117.46709v196.04872z" fill="#7f583d" stroke="none" stroke-width="0"/><path d="M271.4635,225.98278v-9.93058h29.79172v9.93058z" fill="#674228" stroke="none" stroke-width="0"/><path d="M420.10175,226.30313v-9.93058h29.79172v9.93058z" fill="#674228" stroke="none" stroke-width="0"/><path d="M138.52197,225.3421v-9.93058h29.79172v9.93058z" fill="#674228" stroke="none" stroke-width="0"/><path d="M147.41829,192.02148c-1.94106,0 -3.5146,-1.57353 -3.5146,-3.5146v-33.97446c0,-1.94106 1.57353,-3.5146 3.5146,-3.5146h60.62683c1.94106,0 3.5146,1.57353 3.5146,3.5146v33.97446c0,1.94106 -1.57354,3.5146 -3.5146,3.5146z" fill="#fafafa" stroke-opacity="0.54902" stroke="#000000" stroke-width="5"/><path d="M290.93109,191.06046c-1.94106,0 -3.5146,-1.57353 -3.5146,-3.5146v-33.97446c0,-1.94106 1.57353,-3.5146 3.5146,-3.5146h60.62683c1.94106,0 3.51461,1.57353 3.51461,3.5146v33.97446c0,1.94106 -1.57354,3.5146 -3.51461,3.5146z" fill="#fafafa" stroke-opacity="0.54902" stroke="#000000" stroke-width="5"/><path d="M443.41342,191.38079c-1.94106,0 -3.5146,-1.57353 -3.5146,-3.5146v-33.97446c0,-1.94106 1.57354,-3.5146 3.5146,-3.5146h60.62683c1.94106,0 3.51461,1.57354 3.51461,3.5146v33.97446c0,1.94106 -1.57354,3.5146 -3.51461,3.5146z" fill="#fafafa" stroke-opacity="0.54902" stroke="#000000" stroke-width="5"/><path d="M9.17271,364.44208l90.33618,-39.78259l444.95371,0.02532l84.57004,39.75727z" data-paper-data="{&quot;index&quot;:null}" fill="#beaf59" stroke="none" stroke-width="0"/><path d="M261.16465,381.22198l10.57125,-124.93301h246.98295l11.80209,26.80309l-8.23083,98.16889zM307.86501,273.35352c0,0 -9.61023,0 -9.61023,9.61023c0,9.61023 9.61023,9.61023 9.61023,9.61023c16.33739,0 158.39764,4.80512 163.37393,4.80512c0,0 9.61023,0 9.61023,-9.61023c0,-9.61023 -9.61023,-9.61023 -9.61023,-9.61023c-4.02087,0 -147.03654,-4.80513 -163.37393,-4.80513z" data-paper-data="{&quot;index&quot;:null}" fill="#e5d36c" stroke="none" stroke-width="0"/><path d="M-291.92338,581.1306v-766.33333h1210v766.33333zM180.07663,339.13062c5.52284,0 70,-6.47715 70,-12c0,-3.56264 -13.66244,-232.47347 -34.7812,-351.21677c-11.61979,-65.33392 -35.25859,-54.78323 -37.2188,-54.78323c-1.96703,0 -21.9199,-1.83314 -33.92059,63.01503c-21.69376,117.22668 -40.07941,334.42915 -40.07941,337.98497c0,5.52285 70.47716,17 76,17zM267.07663,330.13061c0,-0.99897 0.71141,-16.01528 3.14179,-34.72173c1.38258,-10.64159 7.37974,-19.09545 3.96782,-35.30134c-1.1598,-5.50881 113.6359,-8.21408 112.39376,-14.08349c-6.7993,-32.12828 -6.68017,-70.87117 -9.94622,-109.94001c-8.35492,-99.94247 -31.74811,-198.36791 -55.55716,-200.95342c-50.10193,-5.44075 -72,389.47715 -72,395c0,5.52285 18,5.52285 18,0zM560.07663,320.13061c3.34837,0 -16.9745,-145.76606 -42.94608,-250.7555c-16.86624,-68.18133 -43.05392,-111.07002 -43.05392,-113.2445c0,-5.52285 -4.47715,-10 -10,-10c-2.39414,0 -25.55155,49.08989 -38.5576,113.08991c-16.99655,83.63635 -24.4424,187.78139 -24.4424,190.91009c0,3.98832 78.17466,-2.67829 123.70541,18.48217c3.17955,1.4777 0.22917,60.80826 3.1152,61.96527c13.01505,5.21775 30.92337,-10.44744 32.17938,-10.44744z" fill="url(#color-1)" stroke="none" stroke-width="0"/><text transform="translate(149.28034,177.09321) scale(0.40754,0.40754)" font-size="40" xml:space="preserve" fill="#b485ff" fill-rule="nonzero" stroke="none" stroke-width="1" stroke-linecap="butt" stroke-linejoin="miter" stroke-miterlimit="10" stroke-dasharray="" stroke-dashoffset="0" font-family="Playful" font-weight="normal" text-anchor="start" style="mix-blend-mode: normal"><tspan x="0" dy="0">Room 1</tspan></text><text transform="translate(292.61367,175.42654) scale(0.40754,0.40754)" font-size="40" xml:space="preserve" fill="#b485ff" fill-rule="nonzero" stroke="none" stroke-width="1" stroke-linecap="butt" stroke-linejoin="miter" stroke-miterlimit="10" stroke-dasharray="" stroke-dashoffset="0" font-family="Playful" font-weight="normal" text-anchor="start" style="mix-blend-mode: normal"><tspan x="0" dy="0">Room 2</tspan></text><text transform="translate(444.94701,175.09321) scale(0.40754,0.40754)" font-size="40" xml:space="preserve" fill="#b485ff" fill-rule="nonzero" stroke="none" stroke-width="1" stroke-linecap="butt" stroke-linejoin="miter" stroke-miterlimit="10" stroke-dasharray="" stroke-dashoffset="0" font-family="Playful" font-weight="normal" text-anchor="start" style="mix-blend-mode: normal"><tspan x="0" dy="0">Room 3</tspan></text></g></g></svg>