<svg version="1.1" xmlns="http://www.w3.org/2000/svg" xmlns:xlink="http://www.w3.org/1999/xlink" width="134.50141" height="148.97118" viewBox="0,0,134.50141,148.97118"><g transform="translate(45.09093,-64.42885)"><g data-paper-data="{&quot;isPaintingLayer&quot;:true}" fill-rule="nonzero" stroke="none" stroke-width="0.5" stroke-linecap="butt" stroke-linejoin="miter" stroke-miterlimit="10" stroke-dasharray="" stroke-dashoffset="0" style="mix-blend-mode: normal"><g><path d="M15.76947,178.60831c-0.1569,-3.00441 -2.11738,-7.10004 -1.52624,-9.99674c1.20883,-5.92353 15.3345,-3.95941 18.42221,-4.46931c3.18928,-0.52668 10.94201,-3.46872 13.85139,-1.72309c2.4151,1.44907 2.53488,5.2744 3.1462,7.69442c1.99773,7.90833 3.52539,15.9252 5.35152,23.88282c0.49121,2.14053 1.50752,5.44318 0.76242,7.67909c3.21473,-0.37107 6.52489,-0.83467 10.0461,-1.4135c5.26221,-0.86501 10.98375,-0.92048 16.26745,-2.28349c-0.35739,-3.28852 0.09058,-7.30084 -0.05685,-9.02578c-1.38342,-16.18499 -4.22247,-32.35489 -5.08744,-48.6578c-0.28254,-5.32531 -1.50135,-9.98618 -0.96945,-15.28377c-2.73085,0.43447 -5.53454,1.01766 -8.1244,1.01883c-20.16701,0.00905 -40.33408,-0.03774 -60.50107,0c-8.20084,0.01535 -16.26838,2.24537 -24.29732,3.76346c-0.18324,0.03465 -0.60923,0.14515 -1.14183,0.27048c-0.02762,1.47248 -0.23946,3.01934 -0.11039,4.42907c1.01361,11.06987 0.98881,21.31066 1.15357,32.61151c0.09311,6.38641 0.36818,13.20161 1.24362,19.50275c0.92268,6.64111 1.2951,8.45152 1.30012,15.75588c0.00003,0.03372 0,0.06744 -0.00006,0.10111c0.45262,0.51845 0.76149,1.15248 0.89036,1.75956c0.05195,0.24476 -0.73824,2.72133 -0.50875,2.73451c4.32561,0.24871 12.58457,0.74207 18.37369,-0.33726c4.15156,-0.77401 8.5004,-2.21531 12.81333,-2.97692c-1.91127,-8.08894 -0.86937,-16.82485 -1.29818,-25.03584zM48.26697,189.70709c-0.29467,-1.34798 -0.70981,-2.68374 -1.00635,-4.03301c-0.29341,-1.33509 -0.41965,-2.8589 -0.6658,-4.21304c-0.30696,-1.68865 -0.63896,-3.42207 -0.99736,-5.10056c-0.52188,-2.44407 -1.50151,-4.76554 -2.04573,-7.18767c-0.07625,-0.33932 0.07237,-0.99516 -0.27523,-1.00639c-4.18974,-0.13544 -8.13588,2.00256 -12.30821,2.03499c-2.54637,0.0198 -5.09307,-0.02933 -7.63936,0c-0.4845,0.00557 -2.79719,0.13989 -2.99843,0.48357c-0.44426,0.75865 1.12135,6.47556 1.16239,7.71996c0.25377,7.6951 -1.34247,17.35191 1.32554,24.73678c10.89562,-0.02034 19.49048,-0.1806 28.40786,-0.99564c-1.82103,-3.44524 -2.63847,-10.97135 -2.95929,-12.43898zM20.0302,64.56117c0.77238,-0.73064 3.04196,1.78693 3.49519,2.13405c3.46335,2.65251 6.727,5.61547 10.22842,8.25761c7.09964,5.35731 13.94788,11.08602 21.13413,16.33042c6.17723,4.50804 13.6373,8.15467 18.56862,14.16991c2.14973,2.62224 3.80564,5.59486 6.13924,8.031c0.92261,0.96315 4.10278,2.47222 4.51949,3.72235c0.30399,0.91199 0.5899,2.01971 0.15998,2.87954c-0.63774,1.27549 -1.53194,1.67619 -2.49809,1.59418c0.01549,0.32873 -0.05478,0.65622 -0.21079,0.99611c0.06119,0.24581 0.09449,0.49707 0.10735,0.75586c0.07157,1.44098 -0.49096,3.11507 -0.40322,5.38004c0.29268,7.55461 0.81371,16.32737 2.12103,23.62858c1.195,6.67392 1.64051,13.39678 2.91589,20.04913c0.86217,4.49703 0.1976,8.96447 0.867,13.44832c0.53795,3.60335 1.78588,8.06591 1.73725,11.96486c0.31468,0.45961 0.49878,1.01569 0.49878,1.61477c0,0.23152 -0.0275,0.45661 -0.0794,0.6722c-0.05553,0.71579 -0.53197,1.42205 -1.60583,1.95898c-0.1599,0.07995 -0.32128,0.15788 -0.48408,0.23386c-0.347,0.22726 -0.73278,0.39624 -1.13153,0.48861c-5.9262,2.36533 -13.4016,2.49435 -19.49064,3.06224c-6.36205,0.59336 -12.37968,2.53689 -18.79895,2.92599c-14.44362,0.87548 -26.47147,-0.52042 -39.94239,2.72245c-8.50451,2.0473 -15.18187,1.27164 -25.11311,1.09948c-0.27084,-0.00469 -0.52644,-0.04943 -0.76514,-0.12751c-0.35581,0.08146 -0.77138,0.12325 -1.26985,0.12751c-5.20303,0.0444 -10.77529,1.64235 -15.64589,-0.07607c-0.44911,0.44739 -1.06799,0.71199 -1.90586,0.71199c-0.96132,0 -1.82423,-0.75109 -2.50398,-1.43085c-0.98919,-0.98919 -0.34079,-2.78267 -0.35771,-4.1815c-0.033,-2.72869 -1.37163,-5.44479 -1.52624,-8.20493c-0.85337,-15.23417 -0.77974,-29.50977 -0.76503,-44.73287c-2.10616,-0.56485 -2.61557,-1.60196 -2.13244,-4.01762c0.02786,-0.1393 0.09405,-0.29551 0.19135,-0.46506c-0.81969,-0.41475 -1.37151,-1.18347 -1.10851,-2.36698c-0.00065,-0.02504 -0.00097,-0.05017 -0.00097,-0.07536c0,-0.58764 0.17713,-1.13392 0.4809,-1.58836c1.66953,-4.64155 5.22246,-8.05628 7.66923,-12.32345c6.92745,-12.08151 14.6295,-23.58012 21.92687,-35.37699c0.85457,-1.38148 1.42864,-2.87233 2.55781,-4.11811c3.24034,-3.57496 5.81277,-8.16705 9.2901,-11.40456c0.88233,-0.82147 1.90697,-1.86646 3.06954,-1.98062c0.7887,-0.79062 1.60695,-1.48004 2.45719,-2.04708c4.68868,-3.12696 9.36245,-7.65766 13.42407,-11.39955c0.83149,-0.76604 1.97315,-1.74549 3.13869,-2.02448c0.34284,-0.34383 0.68881,-0.68444 1.04152,-1.0181zM69.06251,109.05543c-2.66557,-2.95874 -5.94871,-5.1581 -9.16437,-7.43389c-10.64049,-7.5305 -21.34072,-15.41054 -31.39883,-23.73754c-0.15079,-0.12483 -5.27849,-3.80148 -8.49371,-6.51233c-3.09881,3.54104 -8.81626,7.62121 -10.10822,8.70485c-8.49368,7.12406 -11.06192,13.83537 -16.58564,24.04036c-1.75896,3.24965 -2.73004,6.81826 -4.21263,10.18274c-1.41464,3.21028 -3.52708,6.36329 -5.48069,9.45573c0.74824,-0.09504 1.52296,-0.19632 2.31503,-0.34286c7.14187,-1.32122 14.04553,-2.99475 21.3385,-3.09602c19.61842,-0.27243 40.85022,0.0193 60.47051,-0.0099c1.8892,-0.00281 5.74024,-1.47806 8.82122,-1.80884c-3.04759,-2.81193 -4.75888,-6.39841 -7.50118,-9.44231zM-16.09445,111.88067c1.13104,-2.1846 2.30746,-4.94335 3.56733,-7.94613c-6.73591,9.41718 -13.08164,21.39842 -18.40949,31.08104c1.34665,-1.5464 2.72671,-3.06139 4.14344,-4.53591c0.87109,-0.90662 1.82126,-2.15508 2.87029,-3.25743c-0.00937,-0.23683 0.00133,-0.49972 0.03458,-0.79069c-0.01613,-0.12293 -0.02445,-0.24832 -0.02445,-0.37566c0,-0.48989 0.1231,-0.95104 0.34006,-1.35418c1.42534,-4.62179 5.30055,-8.61483 7.47824,-12.82104zM-36.24984,165.30472c-0.06683,12.8931 -0.90488,25.40302 1.67051,38.13291c0.15377,0.76009 0.37231,1.81434 0.5292,2.95262c4.2136,-1.55343 9.3257,0.5027 13.95732,0.56664c0.06794,-0.71422 0.18486,-1.47006 0.36662,-2.18783c-0.30144,-0.68662 -0.49198,-1.4422 -0.49814,-1.8548c-0.10179,-6.82227 -0.34709,-9.41072 -1.22429,-15.49244c-1.83151,-12.69813 -1.19382,-25.73502 -1.31945,-38.51077c-0.02275,-2.31431 -0.08895,-4.62989 -0.24781,-6.93885c-0.13285,-1.93094 -0.37379,-3.81669 -0.59018,-5.70027c-3.9042,4.47081 -7.77145,8.98532 -11.76046,13.35343c-0.20463,0.22407 -0.44395,0.53597 -0.71152,0.8975c1.52993,4.539 -0.14648,9.89436 -0.17181,14.78186z" fill="#000000"/><path d="M51.26544,202.18779c-8.91738,0.81504 -17.58542,0.97961 -28.48104,0.99995c-2.668,-7.38487 -1.08878,-17.11366 -1.34255,-24.80876c-0.04104,-1.24441 -1.59669,-6.97525 -1.15244,-7.7339c0.20125,-0.34368 2.51915,-0.48274 3.00365,-0.48831c2.54629,-0.02933 5.11195,0.00973 7.65832,-0.01007c4.17233,-0.03243 8.15802,-2.16829 12.34776,-2.03285c0.3476,0.01123 0.20084,0.6679 0.27709,1.00722c0.54423,2.42213 1.54099,4.75607 2.06287,7.20014c0.3584,1.67849 0.70215,3.43056 1.00911,5.11921c0.24616,1.35414 0.37623,2.89867 0.66965,4.23376c0.29653,1.34927 0.70889,2.70254 1.00356,4.05052c0.32083,1.46763 1.123,9.01784 2.94403,12.46308z" data-paper-data="{&quot;noHover&quot;:false,&quot;origItem&quot;:[&quot;Path&quot;,{&quot;applyMatrix&quot;:true,&quot;segments&quot;:[[[593.14815,433.71265],[0.23138,1.05846],[-0.21252,-0.97217]],[[592.42237,430.80403],[0.21386,0.9731],[-0.21161,-0.96287]],[[591.94219,427.76557],[0.17753,0.97661],[-0.22138,-1.21786]],[[591.22289,424.08703],[0.25848,1.21053],[-0.37638,-1.76267]],[[589.7475,418.90326],[0.3925,1.74685],[-0.05499,-0.24472]],[[589.549,418.17745],[0.25069,0.0081],[-3.02165,-0.09768]],[[580.67228,419.64509],[3.0091,-0.02339],[-1.83645,0.01428]],[[575.16275,419.64509],[1.83639,-0.02115],[-0.34942,0.00402]],[[573.00027,419.99384],[0.14514,-0.24786],[-0.3204,0.54714]],[[573.83859,425.5615],[-0.0296,-0.89747],[0.18302,5.54973]],[[574.79457,443.40174],[-1.92417,-5.32599],[7.85795,-0.01467]],[[595.2824,442.68368],[-6.43124,0.58781],[-1.31333,-2.48472]]],&quot;closed&quot;:true}]}" fill="#6c625b"/><path d="M-36.09833,150.46934c0.26757,-0.36153 0.50916,-0.67423 0.71379,-0.8983c3.98902,-4.3681 7.88146,-8.88507 11.78566,-13.35588c0.21639,1.88358 0.45979,3.76969 0.59263,5.70063c0.15886,2.30896 0.22845,4.62523 0.25121,6.93954c0.12562,12.77575 -0.50295,25.92115 1.32856,38.61928c0.8772,6.08171 1.11428,8.67288 1.21607,15.49515c0.00616,0.4126 0.19675,1.16817 0.4982,1.85479c-0.18177,0.71777 -0.30004,1.47394 -0.36798,2.18816c-4.63162,-0.06393 -9.76602,-2.11949 -13.97962,-0.56605c-0.15689,-1.13828 -0.3772,-2.19286 -0.53097,-2.95296c-2.57539,-12.7299 -1.77119,-25.33087 -1.70436,-38.22397c0.02533,-4.8875 1.72675,-10.2614 0.19682,-14.8004z" data-paper-data="{&quot;noHover&quot;:false,&quot;origItem&quot;:[&quot;Path&quot;,{&quot;applyMatrix&quot;:true,&quot;segments&quot;:[[[532.19438,416.11359],[0.01827,-3.52488],[-0.0482,9.29854]],[[533.39916,443.61516],[-1.85738,-9.18084],[0.1109,0.54818]],[[533.78082,445.7446],[-0.11315,-0.82093],[3.03886,-1.12034]],[[543.84688,446.15326],[-3.34034,-0.04611],[0.049,-0.5151]],[[544.11129,444.57539],[-0.13109,0.51766],[-0.2174,-0.49519]],[[543.75203,443.2377],[0.00444,0.29757],[-0.07341,-4.92024]],[[542.86907,432.06451],[0.63264,4.38615],[-1.32089,-9.15793]],[[541.91748,404.29043],[0.0906,9.21391],[-0.01641,-1.66909]],[[541.73876,399.28611],[0.11457,1.66523],[-0.09581,-1.3926]],[[541.31312,395.17506],[0.15606,1.35844],[-2.81572,3.22436]],[[532.83144,404.80559],[2.87689,-3.15029],[-0.14758,0.1616]],[[532.31829,405.45287],[0.19297,-0.26074],[1.10339,3.27354]]],&quot;closed&quot;:true}]}" fill="#3d2e2e"/><path d="M17.08874,203.59094c-4.31293,0.7616 -8.71515,2.30335 -12.86671,3.07736c-5.78912,1.07932 -14.05862,0.57669 -18.38423,0.32798c-0.22949,-0.01319 0.55962,-2.491 0.50767,-2.73576c-0.12887,-0.60708 -0.43891,-1.24256 -0.89152,-1.76102c0.00006,-0.03367 0.00003,-0.06744 0,-0.10116c-0.00502,-7.30437 -0.3849,-9.12743 -1.30758,-15.76854c-0.87544,-6.30114 -1.15514,-13.13777 -1.24825,-19.52419c-0.16477,-11.30086 -0.13113,-21.57333 -1.14474,-32.6432c-0.12908,-1.40973 0.08475,-2.9595 0.11237,-4.43198c0.5326,-0.12533 0.95908,-0.23651 1.14231,-0.27116c8.02895,-1.51809 16.11251,-3.76276 24.31335,-3.7781c20.16699,-0.03774 40.40214,0.01522 60.56915,0.00617c2.58985,-0.00116 5.39719,-0.58078 8.12805,-1.01525c-0.5319,5.29759 0.6947,9.96901 0.97724,15.29432c0.86497,16.30291 3.70649,32.52503 5.08991,48.71002c0.14743,1.72494 -0.30431,5.74421 0.05308,9.03273c-5.2837,1.36301 -11.01321,1.42842 -16.27542,2.29343c-3.52121,0.57882 -6.83982,1.04934 -10.05455,1.42042c0.7451,-2.2359 -0.33964,-5.63014 -0.83085,-7.77067c-1.82613,-7.95762 -3.37311,-15.94291 -5.37085,-23.85123c-0.61133,-2.42003 -0.7307,-6.21869 -3.1458,-7.66776c-2.90938,-1.74563 -10.62645,1.23595 -13.81574,1.76262c-3.0877,0.5099 -17.13688,-1.51583 -18.34571,4.40771c-0.59114,2.8967 1.35797,6.96527 1.51487,9.96968c0.42881,8.21099 -0.63732,16.92865 1.27394,25.01759z" data-paper-data="{&quot;noHover&quot;:false,&quot;origItem&quot;:[&quot;Path&quot;,{&quot;applyMatrix&quot;:true,&quot;segments&quot;:[[[569.71086,425.70818],[0.30926,5.92179],[-0.11316,-2.16679]],[[568.61013,418.4985],[-0.42633,2.08911],[0.87181,-4.27207]],[[581.89628,415.27522],[-2.22686,0.36774],[2.30012,-0.37984]],[[591.88594,414.03252],[-2.09825,-1.25895],[1.74178,1.04507]],[[594.15499,419.58176],[-0.44089,-1.74533],[1.44077,5.70351]],[[598.01452,436.80612],[-1.31701,-5.73906],[0.35426,1.54376]],[[598.56438,442.3443],[0.53737,-1.61254],[2.31847,-0.26762]],[[605.80966,441.32488],[-2.53951,0.41745],[3.79512,-0.62385]],[[617.54179,439.67802],[-3.81062,0.98301],[-0.25775,-2.37169]],[[617.50079,433.1686],[0.10633,1.24403],[-0.99773,-11.67266]],[[613.83171,398.07645],[0.62382,11.75771],[-0.20377,-3.84063]],[[613.13254,387.05375],[-0.38361,3.82064],[-1.9695,0.31334]],[[607.2732,387.78853],[1.86781,-0.00084],[-14.54451,0.00653]],[[563.63965,387.78853],[14.54449,-0.02722],[-5.91447,0.01107]],[[546.11635,390.50275],[5.7905,-1.09485],[-0.13215,0.02499]],[[545.29286,390.69782],[0.38411,-0.09039],[-0.01992,1.06196]],[[545.21325,393.89208],[-0.09309,-1.0167],[0.73102,7.98362]],[[546.04521,417.4116],[-0.11883,-8.15021],[0.06715,4.6059]],[[546.94211,431.47704],[-0.63137,-4.5444],[0.66544,4.78959]],[[547.87976,442.84023],[-0.00362,-5.26793],[0.00002,0.02432]],[[547.87972,442.91315],[0.00004,-0.02428],[0.32643,0.37391]],[[548.52185,444.18215],[-0.09294,-0.43783],[0.03747,0.17652]],[[548.15494,446.15429],[-0.16551,-0.00951],[3.11964,0.17937]],[[561.4061,445.91106],[-4.17513,0.77841],[2.99412,-0.55822]],[[570.64711,443.7641],[-3.1105,0.54927],[-1.37841,-5.83377]]],&quot;closed&quot;:true}]}" fill="#3d2e2e"/><path d="M-23.5917,124.75569c-0.21696,0.40315 -0.30304,0.75597 -0.30304,1.24586c0,0.12734 0.00725,0.25241 0.02338,0.37535c-0.03325,0.29097 -0.07647,0.6636 -0.0671,0.90043c-1.04903,1.10235 -2.00755,2.34774 -2.87863,3.25437c-1.41673,1.47452 -2.80204,2.98675 -4.14869,4.53315c5.32785,-9.68263 11.73191,-21.76235 18.46783,-31.17953c-1.25987,3.00277 -2.43134,5.76481 -3.56238,7.94941c-2.17769,4.20621 -6.10602,8.29918 -7.53136,12.92097z" data-paper-data="{&quot;noHover&quot;:false,&quot;origItem&quot;:[&quot;Path&quot;,{&quot;applyMatrix&quot;:true,&quot;segments&quot;:[[[546.73051,377.58401],[-1.57056,3.03353],[0.81571,-1.57554]],[[549.30328,371.85324],[-0.90862,2.16561],[-4.85796,6.7917]],[[536.0263,394.26898],[3.84246,-6.98314],[0.97121,-1.11527]],[[539.01456,390.99767],[-1.02175,1.06343],[0.62823,-0.65386]],[[541.08462,388.6484],[-0.75656,0.79502],[-0.00676,-0.1708]],[[541.10956,388.07815],[-0.02398,0.20985],[-0.01163,-0.08866]],[[541.09193,387.80722],[0,0.09184],[0,-0.35331]],[[541.33718,386.83058],[-0.15647,0.29075],[1.02796,-3.33325]]],&quot;closed&quot;:true}]}" fill="#6c625b"/><path d="M76.61588,118.52124c-3.08098,0.33078 -6.93522,1.81211 -8.82442,1.81493c-19.62029,0.0292 -40.94161,-0.2517 -60.56003,0.02073c-7.29297,0.10128 -14.2055,1.7633 -21.34738,3.08453c-0.79208,0.14653 -1.56726,0.24699 -2.31549,0.34203c1.95361,-3.09244 4.06293,-6.25192 5.47757,-9.46219c1.48259,-3.36448 2.4503,-6.94468 4.20926,-10.19433c5.52372,-10.20499 8.10504,-16.96381 16.59873,-24.08787c1.29197,-1.08363 7.0321,-5.17975 10.13091,-8.72079c3.21523,2.71085 8.35888,6.38386 8.50967,6.5087c10.05811,8.32699 20.81967,16.2718 31.46016,23.8023c3.21566,2.27578 6.49698,4.48361 9.16255,7.44234c2.74229,3.0439 4.45088,6.6377 7.49847,9.44963z" data-paper-data="{&quot;noHover&quot;:false,&quot;origItem&quot;:[&quot;Path&quot;,{&quot;applyMatrix&quot;:true,&quot;segments&quot;:[[[608.14596,375.54644],[1.97775,2.19527],[-1.92242,-2.13385]],[[601.53659,370.1851],[2.31914,1.6413],[-7.67395,-5.43102]],[[578.89166,353.06552],[7.25394,6.00545],[-0.10875,-0.09003]],[[572.76597,348.36881],[2.31883,1.95507],[-2.23487,2.55381]],[[565.47589,354.64677],[0.93177,-0.78152],[-6.12567,5.13789]],[[553.51428,371.98475],[3.98372,-7.35987],[-1.26857,2.34366]],[[550.47612,379.32857],[1.06925,-2.42647],[-1.02024,2.31526]],[[546.52343,386.14807],[1.40895,-2.23028],[0.53963,-0.06854]],[[548.19304,385.9008],[-0.57125,0.10568],[5.15074,-0.95287]],[[563.58243,383.66794],[-5.25971,0.07304],[14.14886,-0.19648]],[[607.19394,383.6608],[-14.15021,0.02106],[1.3625,-0.00203]],[[613.55583,382.35626],[-2.22201,0.23856],[-2.19793,-2.02797]]],&quot;closed&quot;:true}]}" fill="#7a6f67"/></g></g></g></svg>