<svg version="1.1" xmlns="http://www.w3.org/2000/svg" xmlns:xlink="http://www.w3.org/1999/xlink" width="229.44573" height="109.68162" viewBox="0,0,229.44573,109.68162"><g transform="translate(-205.27714,-125.15919)"><g data-paper-data="{&quot;isPaintingLayer&quot;:true}" fill="#9966ff" fill-rule="nonzero" stroke="none" stroke-width="0.5" stroke-linecap="butt" stroke-linejoin="miter" stroke-miterlimit="10" stroke-dasharray="" stroke-dashoffset="0" style="mix-blend-mode: normal"><path d="M215.7832,212.55718c0.06206,-0.53745 -7.35946,-56.7426 -10.49624,-80.51225c0,0 -0.24485,-1.85542 1.71003,-2.3168c0.21816,-0.11361 0.37636,-0.16631 0.37636,-0.16631c4.5728,-1.52086 9.44652,-3.1333 14.41925,-3.16637c1.39674,-0.00929 3.11204,-0.59416 4.18518,0.18015c1.95817,1.41288 2.43352,6.8928 2.98699,9.09785c0.85276,3.39739 5.48222,17.64417 6.43363,21.44999c3.07552,-3.64851 12.67265,-16.43903 15.91021,-17.57985c1.2809,-0.45135 15.48526,-2.98053 16.65064,-2.15405c3.50606,2.48645 1.07152,7.12152 0.43324,10.03316c-4.39938,7.74959 -19.2533,31.00134 -19.81562,31.50743c-0.25494,0.22945 -1.40623,-0.03041 -1.09198,0.13491c1.47083,0.77375 24.70834,20.63497 28.30365,23.73287l0.87452,0.75736c0.37622,0.20257 0.71868,0.53159 0.93651,1.05669c0.19224,0.36985 0.31823,0.85071 0.13655,1.37288c-0.14487,0.53073 -24.01235,6.93294 -25.42828,6.40422c-2.44,-0.91111 -9.95091,-10.56978 -11.81157,-12.37023c0.00274,0.00733 0.005,0.01436 0.00674,0.02108c0.32357,1.24631 0.53106,2.51467 0.70867,3.7828c0.3542,2.5288 0.42306,5.08899 0.35796,7.6357c-1.08264,0.87639 -1.89648,2.10252 -3.24792,2.62917c-5.19089,2.02286 -12.15552,1.0696 -17.67547,1.06394l-2.62423,-0.22457c0,0 -2.48759,-0.21542 -2.23883,-2.36975z"/><path d="M280.69777,201.51727c-1.89814,1.62698 -3.52512,-0.27116 -3.52512,-0.27116l-1.36962,-1.60921c-2.89944,-2.91032 -5.06346,-6.25599 -8.29397,-8.8156c0,0 -0.35342,-0.28274 -0.63921,-0.75799c-2.08652,-1.09393 -1.0584,-3.2644 -1.0584,-3.2644c2.34435,-4.94911 4.39883,-9.77501 6.13685,-14.96801c0.7147,-2.13544 0.47158,-4.66947 1.74586,-6.52611c2.57418,-3.75059 6.87242,-2.6367 10.68489,-2.92831c2.15804,-0.16506 4.36038,-1.25012 6.45474,-0.70416c2.40748,0.62758 5.91223,4.50895 7.33983,6.01552c5.22346,5.51238 10.36432,11.15074 15.49775,16.7504c0.41488,0.46112 5.62205,5.86042 5.63974,7.21105c0.08355,6.37805 -8.44585,6.42246 -12.68075,6.95058c-1.26081,0.15724 -6.17985,1.19465 -7.0365,0.82046c-3.34731,-1.46211 -2.3278,-6.19559 -5.07281,-7.66564c-0.99988,-0.53547 -4.10486,-0.38752 -5.20027,-0.38558c-0.87516,0.00154 -1.75536,0.09076 -2.62547,-0.0031c-0.34196,-0.03689 -0.79845,-0.68817 -0.95795,-0.38344c-0.33396,0.63807 0.11888,1.44595 0.02792,2.16036c-0.25659,2.01526 -0.84469,3.97439 -1.24306,5.96647l-0.93368,1.52748c0,0 -1.2082,1.20819 -2.62575,0.62808c-0.07953,0.08462 -0.16764,0.16881 -0.26503,0.25229z"/><path d="M324.23645,190.21174c-0.47557,-0.43735 -0.69527,-0.87471 -0.76233,-1.28042c-2.62563,-2.72464 -5.38267,-5.41481 -8.35791,-7.80477c-1.69342,-1.3603 -4.06474,-2.30363 -5.14574,-4.25011c-0.23672,-0.42624 -0.23801,-4.68929 -0.21625,-5.53353c0.00397,-0.15397 0.48973,-2.3175 -0.37283,-2.67673c-2.26231,-0.94221 -6.48146,0.7301 -8.39494,-0.98545c-0.62391,-0.55938 -0.73492,-2.92442 -0.74415,-4.75815c-0.68669,-0.64849 -0.73525,-1.58627 -0.73525,-1.58627c-0.02397,-0.46401 -0.61591,-7.56798 0.11765,-8.44089c1.18522,-1.4104 3.23036,-2.04162 5.05514,-2.64257c0.91296,-0.30066 6.64762,0.15222 7.1524,0.16953c3.87864,0.133 7.79107,-0.00112 11.67199,-0.00112h1.5c0.17924,0 0.35408,0.01735 0.52263,0.05032c0.28177,-0.05031 0.47737,-0.05032 0.47737,-0.05032c2.58333,0 5.16667,0 7.75,0h0.25c0.86824,0 1.43494,0.27731 1.80483,0.6393c0.69516,0.68033 0.69517,1.65978 0.69517,1.65978c0,3.37198 0,6.74399 0,10.11597v1.37945c0,0 0,0.61444 -0.34541,1.20803c0.0285,0.092 0.05093,0.18635 0.06686,0.28268c0.30899,0.33735 0.52855,0.81676 0.52855,1.4981c0,2.29908 -2.5,2.29908 -2.5,2.29908l-1.24876,-0.01141c-1.78405,-0.16622 -3.53023,-0.20617 -5.29841,-0.21564c0.69573,6.14921 1.1703,12.31913 1.54332,18.4922l0.00385,1.27708c0,0 0,2.29908 -2.5,2.29908c-0.86922,0 -1.43622,-0.27793 -1.80609,-0.64052c-0.23433,-0.11296 -0.47301,-0.27319 -0.71168,-0.49268z"/><path d="M341.36457,154.05232l0.01884,-0.03296l0.07157,-0.01789c0.3511,-0.188 0.75232,-0.29461 1.17843,-0.29461h0.57143l0.20271,0.05068l0.20828,-0.01666l0.75598,0.12599l1.61207,0.13433l0.02012,0.00685l0.02103,-0.00307l1.3045,0.13045h1.44674l0.05179,0.01295l0.05229,-0.01078l3.37655,0.14069h4.09079l0.29858,0.07465h0.30777l0.27285,0.06822h2.54938l0.17457,0.04364l0.17898,-0.01851l0.82412,0.11773h0.3735l0.02336,-0.01558l0.0701,0.01558h0.06966l0.55728,0.13932l0.56075,0.12461l0.06231,0.03116l0.06966,0.01741l0.01393,0.02438l0.13981,0.06991l0.97828,0.83853l0.00548,0.09856l0.08571,0.04898l0.3125,1.25v2.53467l0.14177,4.8204l-0.00808,0.03687l0.00916,0.03663v1.42857l-0.11962,0.47848l0.0503,0.18444l-0.16527,0.27545l-0.07791,0.31163l-0.16598,0.09484l-0.25376,0.42292l-0.42857,0.42857l-0.34461,0.20676l-0.30513,0.26154l-0.13982,0.06991l-0.01393,0.02438l-0.06966,0.01741l-0.0623,0.03115l-0.13207,0.02935l-0.03734,0.02241l-0.02851,-0.00778l-0.36284,0.08064l-0.16168,0.04042l-0.39561,0.52747l-0.22698,0.18443l-0.17256,0.23613l-0.85714,0.71429l-0.02315,0.01117l-0.01558,0.02045l-0.71429,0.57142l-0.03645,0.01671l-0.02528,0.03112l-0.57143,0.42857l-0.20943,0.08819l-0.17253,0.14789l-0.33454,0.16727l-0.50747,0.40597l-0.03645,0.01671l-0.02528,0.03112l-0.57143,0.42857l-0.06546,0.02756l-0.04779,0.05256l-1.28571,0.85715l-0.31446,0.11231l-0.28172,0.17927l-0.15879,0.05293l-0.71909,0.61636l-0.13711,0.06856l-0.10312,0.11343l-0.2226,0.1484l-0.11067,0.11067l-0.15429,0.09258l-0.11347,0.13966l-0.28572,0.21428h8.66574l0.04369,-0.01457l0.4007,-0.03082l0.38987,-0.09746h0.42857l0.36339,0.09085l0.1269,-0.0423l0.11921,0.10383l0.6405,0.16013l0.45246,0.79181l0.6877,0.59897l0.03141,0.65947l0.07843,0.13725l-0.06637,0.11614l0.01782,0.37416l-0.09431,0.47154v0.46674l-0.03832,0.15326l0.01901,0.15682l-0.14074,1.12587l-0.13488,1.21391l-0.13365,2.00481v0.63105l-0.05068,0.20271l0.01666,0.20828l-0.28571,1.71428l-0.0165,0.03796l0.00197,0.04134l-0.42857,2.14285l-0.06763,0.14277l-0.01211,0.15751l-0.25535,0.76606l-0.11957,0.47828l-0.60634,1.13689l-0.3755,0.10561l-0.19353,0.33867l-1.25,0.3125h-2.57143l-0.15709,-0.03928l-0.16082,0.01898l-5.32718,-0.68297l-3.89719,0.26877l-0.08664,-0.01542l-0.08537,0.02134h-0.6096l-0.47154,0.09431l-0.04134,-0.00197l-0.03796,0.0165l-2.57143,0.42857l-0.20829,-0.01667l-0.20271,0.05068h-2.28572l-0.20271,-0.05068l-0.20829,0.01667l-0.85714,-0.14286l-0.09345,-0.04063h-0.10189l-0.27286,-0.06821h-0.40652l-0.11213,-0.02803l-0.11421,0.01776l-1.45849,-0.13259h-1.45803l-0.24157,-0.06039l-0.24872,0.01184l-0.47154,-0.09431h-0.16076l-0.02337,0.01558l-0.07009,-0.01558h-0.06966l-0.55728,-0.13932l-0.56076,-0.12461l-0.0623,-0.03116l-0.06966,-0.01741l-0.01393,-0.02438l-0.20212,-0.10106l-0.64109,-0.16028l-0.26763,-0.46835l-0.49793,-0.20747l-0.46513,-1.20159l-0.14286,-1.14286l0.01901,-0.15682l-0.03832,-0.15326v-2.28571l0.03414,-0.13657l-0.01885,-0.13951l0.12757,-1.1481v-1.4312l-0.00354,-0.01592l-0.13932,-0.55728v-0.06966l-0.01558,-0.0701l0.01558,-0.02336v-5.83688l0.11962,-0.47848l-0.0503,-0.18444l0.16527,-0.27545l0.07791,-0.31163l0.16598,-0.09484l0.25376,-0.42293l0.28571,-0.28571l0.24469,-0.14682l0.19808,-0.20541l0.70373,-0.43983l0.18693,-0.16023l0.32251,-0.37626l0.12453,-0.00692l0.15498,-0.13284l1.35604,-0.67802l0.33883,-0.2033l0.30513,-0.26153l0.4989,-0.24945l0.33883,-0.2033l0.30513,-0.26154l0.1465,-0.07325l0.0931,-0.06206l0.82495,-0.82495l0.06446,-0.03868l0.0424,-0.06208l1.23081,-1.09404l0.80519,-0.80519l0.1543,-0.09258l0.11347,-0.13966l0.22885,-0.17163l0.04817,-0.07226l0.18425,-0.1675l0.12811,-0.21352l0.58938,-0.58938h-2.82161l-1.25,-0.3125l-0.34091,-0.59659l-0.59659,-0.34091l-0.3125,-1.25v-0.71428l0.07464,-0.29857v-0.30776l0.14286,-0.57143l0.12956,-0.24293l0.05973,-0.26877l0.1818,-0.3636l0.19409,-0.6793l0.21732,-1.08661v-2.60959l0.3125,-1.25l1.52353,-0.87059c0.21626,-0.43057 0.55325,-0.79003 0.96656,-1.03395z"/><path d="M373.58657,157.24957l0.7742,0.04185l0.04435,-0.01086l0.14068,-0.00223l0.12925,-0.04946l1.9352,-0.26954l0.93074,-0.18879l0.34858,0.00827l0.34195,-0.05851l0.42351,0.02289l2.16778,-0.34256l0.29,0.01935l0.28503,-0.04877l1.14119,0.06168l0.23825,0.06786l0.24894,0.00267l0.63896,0.15221l0.92342,0.17104l0.06437,0.02787l0.07101,0.00077l0.46623,0.11106l0.46605,0.02519l0.23826,0.06786l0.24894,0.00268l0.70623,0.16823l0.05373,0.02666l0.06087,0.00329l0.44018,0.12537l0.69055,0.12791l0.39318,0.02125l0.38452,0.10953l0.3986,0.0496l0.42094,0.15282l0.13513,0.08823l0.01858,-0.00356l0.03619,0.02236l0.13043,0.03377l0.27829,0.1451l0.29185,0.25388l0.33396,0.20629l0.54255,0.54957l0.04744,0.08109l0.07893,0.02865l0.21575,0.475l0.26561,0.45399l-0.02626,0.07298l0.03853,0.08484l0.2152,1.31223l-0.01201,0.11257l0.03625,0.10864l0.07186,1.29204l0.07871,1.16236l-0.02567,0.12562l0.02739,0.12582l-0.09113,1.68585l-0.37338,1.11784l-0.25952,0.11749l-0.07103,0.25609l-1.11939,0.56927l-0.43496,0.10655l-0.40162,0.00635l-0.39409,0.06744l-0.56883,-0.03075l-0.01607,0.00235l-0.5633,0.09639l-0.06956,-0.00376l-0.07076,0.01036l-0.02256,-0.0154l-4.68718,-0.25337l-0.21743,-0.06193l-0.22715,0.00119l-0.19361,-0.04286l-0.0563,1.04151l-0.04984,0.1492l0.01037,0.15619l-0.05651,0.27469l5.41377,0.29264l1.23284,0.35115l0.0447,0.08045l0.09816,0.01029l0.7893,0.93331l0.25725,0.53414l0.04645,0.2472l0.11745,0.22752l0.11461,0.52643l-0.00644,0.11914l0.04348,0.113l0.09359,0.91548l-0.02728,0.16147l0.03502,0.16082l-0.04799,0.88775l0.05473,0.25137l-0.01511,0.27937l0.05989,0.27507l-0.01571,0.29056l0.11999,2.89945l-0.00662,0.02856l0.02778,0.04253l-0.16105,0.53238l-0.1253,0.54059l-0.04597,0.0256l-0.00851,0.02812l-0.31333,0.5033l-0.88531,0.84279l-0.09869,-0.00035l-0.05311,0.07517l-1.26351,0.2162l-0.85589,-0.04626l-0.38453,-0.10952l-0.3986,-0.04961l-0.04291,-0.01558l-1.59198,-0.08605l-0.19993,-0.05695l-0.2088,0.00388l-0.64675,-0.13405l-1.14856,-0.06208l-0.08062,1.49133l-0.09475,0.28368l-0.02114,0.2965l-0.03373,0.09554l0.25928,0.03227l0.23816,0.08646l0.61746,0.12798l2.08564,0.36796l0.03807,0.01609l0.04181,-0.00077l1.69777,0.35189l0.24307,0.11159l0.26655,0.04778l0.34791,0.14823l0.33283,0.0948l0.18663,-0.03571l0.26694,0.1649l0.30736,0.08755l0.08656,0.15579l0.09103,0.05623l0.06491,0.02356l0.14685,0.09589l0.17349,0.04492l0.27828,0.14511l0.14823,0.12895l0.12401,0.013l0.30358,0.35896l0.35989,0.31307l0.00041,0.05855l0.40651,0.35362l0.00063,0.08977l0.08318,0.04908l0.20735,0.95242l0.00492,0.01084l0.00782,0.04769l0.03062,0.14064l-0.00187,0.03464l0.07103,0.43315l-0.02403,0.22514l0.04845,0.22254l-0.16144,2.98665l0.07105,1.04909l-0.02567,0.12562l0.02739,0.12582l-0.10514,1.94521l-0.05214,0.15611l0.0097,0.16348l-0.19171,0.90006l-0.16967,0.32966l-0.10631,0.35142l-0.15667,0.25165l-0.09295,0.08849l-0.01839,0.03572l-0.02796,0.0084l-0.00095,0.0009l-0.01302,0.11267l-0.39153,0.27246l-0.34051,0.32415l-0.12469,-0.00045l-0.16127,0.11222l-0.43535,0.17018l-0.01511,0.02138l-0.07041,0.01205l-0.06374,0.02492l-0.56606,0.08285l-0.5633,0.09639l-0.06956,-0.00376l-0.07076,0.01036l-0.02257,-0.0154l-0.30318,-0.01639l-0.35914,0.04544l-1.33333,0.28732l-0.36473,-0.00428l-0.35776,0.06122l-2.28238,-0.12337l-0.38453,-0.10952l-0.3986,-0.04961l-0.04291,-0.01558l-0.45079,-0.02437l-0.02244,-0.00639l-0.02307,0.00355l-0.72984,-0.05159l-0.07894,-0.02393l-0.08244,0.00772l-4.95509,-0.64587l-0.05545,-0.0205l-0.05951,0.00303l-3.22936,-0.56109l-2.53602,-0.38174l-1.58076,-0.08544l-1.23284,-0.35115l-0.31114,-0.55997l-0.57899,-0.34166l-0.25071,-1.15158l0.02094,-0.38744l-0.00275,-0.01464l-0.11177,-0.5134l0.00342,-0.06323l-0.01212,-0.06447l0.0167,-0.02037l0.01303,-0.24097l0.10339,-0.30952l-0.00954,-0.0438l0.0151,-0.27938l-0.05988,-0.27507l0.11638,-2.15302l0.01132,-2.80092l-0.00923,-2.40998l-0.14144,-2.54307l-0.07871,-1.16236l0.00644,-0.03153l-0.00973,-0.03097l-0.05853,-1.56388l0.01272,-0.05392l-0.01395,-0.05392l0.05363,-3.63877l0.00078,-0.00269l-0.0007,-0.00271l0.06764,-3.89813l0.01102,-0.03746l-0.00832,-0.03822l0.22431,-4.14979l0.02953,-0.0884l-0.0118,-0.09214l0.44771,-3.13668l0.21241,-3.92947c0.02091,-0.38682 0.14704,-0.74526 0.352,-1.05383l0.02138,-0.064l0.03383,-0.01532c0.24706,-0.33898 0.59199,-0.61175 0.99656,-0.78719l-0.27205,-0.48962l1.35552,-1.91826l1.26351,-0.21621l0.42795,0.02313l0.38452,0.10952l0.3986,0.04961l0.42094,0.15281l0.14685,0.09589l0.17348,0.04492l0.26491,0.13813z"/><path d="M295.20569,131.23394c2.15078,-0.28085 4.51651,2.84705 5.35816,4.37203c0.42708,0.77383 0.95606,1.46987 1.34077,2.2693c0.12009,0.24955 0.39427,1.0102 0.39061,0.73327c-0.00972,-0.73668 -3.2381,-18.58281 3.91561,-11.99066c0.22694,0.20913 0.53966,2.02602 0.55931,2.53526c0.16881,4.37576 2.25988,12.09897 -1.02795,15.8455c-1.16339,1.3257 -5.03709,0.54071 -6.06583,-0.93888c-0.48678,-0.70011 -0.89696,-1.3886 -1.27317,-2.14551c-0.17371,-0.34948 -0.43852,-1.38673 -0.57369,-1.02061c-0.32439,0.8787 -0.39122,2.06265 -0.70608,3.09281c0.07812,0.30778 0.12905,0.67735 0.14709,1.11891c0.11382,2.7861 -5.93741,3.75143 -7.78533,2.79333c-2.16417,-1.12206 -6.15232,-14.27301 -6.73795,-15.33366c-0.19694,-0.33965 -0.31652,-0.73082 -0.33366,-1.15036c-0.00143,-0.03486 -0.00213,-0.06959 -0.00212,-0.10417c-0.03036,-2.39198 1.25463,-2.82997 2.53892,-2.49765c0.93904,0.01378 1.76142,0.54951 2.17586,1.3388c2.96006,3.52399 3.06772,8.7397 5.05435,12.72396c0.32508,-3.59865 -0.21172,-11.21903 3.02508,-11.6417z"/><path d="M312.71639,132.96477c0.25604,-0.01046 0.50467,0.01797 0.74016,0.08004l0.21843,-0.10524l0.87615,-0.63725l0.32519,0.05845l0.12733,-0.06134l0.4341,0.16225l0.38154,0.06857l0.87392,0.39322l0.31556,0.24887l0.35276,0.19252l0.29714,0.27382l0.13671,0.20811l0.19094,0.15984l0.23959,0.32941l1.0244,1.04877l0.0926,0.15852l0.14077,0.11785l0.15735,0.21636l0.1151,0.10606l0.13672,0.20811l0.19093,0.15984l0.15736,0.21635l0.26366,0.24297l0.13672,0.20811l0.19093,0.15984l0.13006,0.17882l0.16063,0.09786l0.03832,0.00056l0.33647,0.36157l0.11557,0.05199l0.16027,0.1264l0.12471,0.00183l0.3376,0.36278l0.38911,0.30688l0.012,0.12415l0.13905,0.14942l0.1544,0.27965l0.33061,1.24533l-0.39899,0.65492l0.00524,0.05431l-0.06884,0.05007l-0.84823,1.39233l-1.04499,-0.01534l-0.07547,0.0549l-0.33925,-0.06097l-1.05948,-0.01554l-0.33647,-0.36157l-0.11557,-0.052l-0.16027,-0.1264l-0.12471,-0.00182l-0.24088,-0.25885l-0.1519,0.35052l-0.6787,0.88558l-0.3278,0.26071l-0.28381,0.308l-0.44156,0.29009l-0.00062,0.00178l-0.00684,0.00312l-0.24718,0.16239l-0.46764,0.16345l-0.45076,0.20548l-0.29083,0.05373l-0.00709,0.00248l-0.00168,-0.00086l-0.53334,0.09856l-0.02014,0.01956l-0.07176,-0.00259l-0.0685,0.01266l-0.57333,-0.03573l-0.57406,-0.02065l-0.06692,-0.01931l-0.07166,-0.00447l-0.01813,-0.02144l-0.71137,-0.20527l-0.2888,-0.16763l-0.31879,-0.09938l-0.43988,-0.26798l-0.17488,-0.17726l-0.21857,-0.11929l-0.44571,-0.41072l-0.22066,-0.33588l-0.27377,-0.2942l-0.22996,-0.41649l-0.02493,-0.01292l-0.02025,-0.0689l-0.03367,-0.06099l-0.14739,-0.5552l-0.16195,-0.55113l-0.00284,-0.0696l-0.01842,-0.0694l0.0146,-0.02398l-0.0041,-0.10046l-0.07929,-0.26984l-0.01256,-0.30751l-0.08677,-0.29527l-0.00094,-0.02286l-0.01634,-0.04306l-0.04715,-0.3991l-0.11331,-0.38557l-0.02833,-0.69344l-0.01651,-0.02271l0.0127,-0.07067l-0.00284,-0.0696l0.11646,-0.56251l0.10162,-0.56537l0.01847,-0.04105l0.06377,-0.30805l0.00616,-0.0128l-0.0138,-0.04351l0.29747,-0.54504l0.26959,-0.55934l0.0434,-0.01414l0.0068,-0.01248l0.20217,-0.21938l0.25161,-0.46103l0.20856,-0.22633l0.14744,-0.27015l0.27382,-0.29714c0.27509,-0.29852 0.62244,-0.53046 1.0158,-0.66734l0.06108,-0.04012l0.03659,0.00839c0.19799,-0.05982 0.40669,-0.09588 0.62294,-0.10471zM314.13146,137.915l-0.13059,0.23928l0.01617,0.04263l0.04716,0.3991l0.1133,0.38557l0.00483,0.11799l0.11837,-0.35966l-0.13208,-0.86522z"/><path d="M327.2751,128.78002c0.23976,0.04309 0.46095,0.09036 0.66434,0.14211c1.27543,0.06528 2.31405,1.09348 2.3672,2.3947c0.04629,1.13306 -0.66902,2.12074 -1.69045,2.46875c-0.10935,0.18999 0.34782,0.26692 0.52023,0.4023c0.84344,0.66227 1.71167,1.26534 2.1694,2.28669c1.74004,3.88249 0.02832,9.59491 -5.36093,8.81766c-0.42509,-0.06131 -0.94587,0.02983 -1.26171,-0.26121c-5.80241,-5.34694 2.60713,-3.74017 2.52519,-5.55887c-0.05844,-1.29722 -2.38908,-1.91082 -3.0949,-2.70164c-2.67192,-2.99363 -1.06035,-7.80241 3.13892,-7.97397z"/><path d="M348.32207,126.07709c0.91679,-0.03745 1.73841,0.42371 2.203,1.14219l0.0337,0.01748l0.0208,0.07078c0.20217,0.34314 0.32507,0.73966 0.34246,1.16543l0.09913,2.42655l-0.0144,0.06956l0.01622,0.06916l-0.03778,2.57512l-0.02023,0.07616l0.01323,0.07768l-0.18346,2.40035l-0.14783,3.2177l-0.03618,2.46669l0.04538,1.1107l0.11348,0.4673l-0.00168,0.24899l0.0702,0.2389l0.0225,0.55071l0.01651,0.02271l-0.0127,0.07067l0.00284,0.0696l-0.11646,0.5625l-0.10163,0.56538l-0.02858,0.06353l-0.01455,0.07031l-0.02379,0.01492l-0.06415,0.14255l-0.79789,1.0117l-0.09826,0.00949l-0.04543,0.08763l-1.2362,0.36326l-0.32361,0.01323l-0.46731,0.11348l-0.24899,-0.00168l-0.2389,0.07021l-2.71203,0.11079l-0.39352,-0.08147l-0.40161,-0.01444l-0.04426,-0.01277l-0.02286,0.00094l-0.5625,-0.11646l-0.56538,-0.10163l-0.06352,-0.02858l-0.07031,-0.01455l-0.01491,-0.02379l-0.27184,-0.12231l-0.26333,-0.07598l-0.15562,-0.09033l-0.17711,-0.03183l-0.58261,-0.26215l-0.07697,-0.06071l-0.09486,-0.02469l-0.73118,-0.39905l-0.22633,-0.20856l-0.27014,-0.14744l-0.74284,-0.68453l-0.22067,-0.33588l-0.27378,-0.2942l-0.3088,-0.55929l-0.04617,-0.17391l-0.10272,-0.14774l-0.09721,-0.25627l-0.14408,-0.26095l-0.02493,-0.01292l-0.02025,-0.0689l-0.03367,-0.06098l-0.1474,-0.5552l-0.16195,-0.55113l-0.00284,-0.0696l-0.01842,-0.0694l0.01461,-0.02398l-0.08582,-2.10058l-0.01651,-0.02272l0.0127,-0.07067l-0.00284,-0.0696l0.11646,-0.5625l0.10162,-0.56537l0.02858,-0.06353l0.01455,-0.07031l0.02379,-0.01491l0.19522,-0.43386l0.24886,-0.31555l0.19253,-0.35275l0.24296,-0.26367l0.13919,-0.22847l0.30132,-0.29728l0.25329,-0.33913l0.55346,-0.45155l0.06429,-0.03021l0.0456,-0.05447l0.41655,-0.30297l0.3967,-0.16022l0.36897,-0.21657l0.37293,-0.10959l0.53814,-0.25712l0.00232,-0.00446l0.01825,-0.00536l0.24222,-0.11574l0.49302,-0.10031l0.48271,-0.14185l0.26823,-0.01096l0.01864,-0.00379l0.00412,0.00286l2.13554,-0.08725l0.30137,0.0624l0.3075,-0.01256l0.10917,0.0226l0.05174,-0.67709l0.03563,-2.42871l-0.0963,-2.35721c-0.01739,-0.42577 0.07275,-0.831 0.24626,-1.18947l0.01496,-0.07224l0.03216,-0.02017c0.40444,-0.75399 1.1857,-1.28063 2.10249,-1.31808zM342.98867,139.38947l-0.19836,0.04036l-0.17457,0.10247l-0.14966,0.04398l-0.01023,0.00744l-0.16788,0.13696l-0.04519,0.07417l-0.17726,0.17488l-0.10258,0.18795l0.04493,1.09963l0.02354,0.04263l0.04617,0.17392l0.10272,0.14773l0.09721,0.25627l0.02683,0.04859l0.21819,0.20106l0.37675,0.20562l0.33303,0.14985l0.26334,0.07598l0.15562,0.09033l0.1771,0.03183l0.20918,0.09412l0.06731,0.01394l0.40161,0.01444l0.04426,0.01277l1.0934,-0.04466l-0.03207,-0.78506l0.01439,-0.06956l-0.01621,-0.06916l0.03778,-2.57511l0.01029,-0.03876l-0.00793,-0.03931l0.00034,-0.00756l-0.5371,-0.1112l-1.60631,0.06562z"/><path d="M353.45324,147.77858c-0.04078,-0.06603 -0.08069,-0.15185 -0.11947,-0.2556c-0.14077,-0.29271 -0.22642,-0.61775 -0.24298,-0.96223c-0.62605,-3.42627 -0.5688,-12.07667 2.28983,-12.19346c3.79934,-0.15521 2.49555,5.52753 2.53488,7.80214c0.03141,1.8171 1.41672,4.48539 -0.12308,5.45071c-0.40444,0.75399 -1.1857,1.28063 -2.10249,1.31809c-0.8129,0.03321 -1.55096,-0.32559 -2.03167,-0.90819c-0.07759,-0.07386 -0.14664,-0.15693 -0.20504,-0.25148z"/><path d="M352.83011,129.68179c-0.05636,-1.37956 1.01631,-2.5436 2.39587,-2.59996c1.37956,-0.05636 2.54361,1.01631 2.59997,2.39587c0.05636,1.37956 -1.01631,2.5436 -2.39587,2.59996c-1.37956,0.05636 -2.54361,-1.01631 -2.59997,-2.39587z"/><path d="M360.87835,138.61777l0.08281,-0.13014l0.03347,-0.15059l0.63453,-1.26914l-0.00298,-0.02389l0.03882,-0.04777l0.0267,-0.05341l0.32048,-0.3739l0.31053,-0.38221l0.04777,-0.03583l0.04006,-0.04674l0.02404,-0.00134l0.06392,-0.04794l0.00395,-0.0198l0.05193,-0.03305l0.04222,-0.04224l0.42227,-0.25336l0.05766,-0.03671l0.2918,-0.21886l0.17954,-0.0756l0.14791,-0.12678l0.77455,-0.3873l0.11125,-0.02472l0.0516,-0.06634l0.462,-0.04781l0.45341,-0.10077l0.0433,0.02886l0.12231,-0.00942l0.33423,-0.08357h0.24744l0.02003,-0.01336l0.06009,0.01335h0.05972l0.47775,0.11943l0.47508,0.10556l0.74446,0.10634l0.18041,0.07349l0.19424,0.01494l0.58092,0.19363l0.04746,0.0302l0.05579,0.00717l0.67097,0.26254l0.0071,-0.00194l0.02258,0.01355l0.1901,0.07438l0.35792,0.25442l0.37657,0.22593l0.14434,0.14434l0.02146,0.01525l0.00107,0.00727l0.22041,0.2204l0.21755,0.36255l0.14229,0.08131l0.0668,0.26716l0.14168,0.23613l-0.04311,0.15811l0.10256,0.41019l0.00005,2.32366l-0.10254,0.41019l0.04313,0.15811l-0.14167,0.23613l-0.06679,0.26716l-0.14229,0.08131l-0.01672,0.02786l0.00094,0.01968l-0.03467,0.03654l-0.16708,0.27849l-0.19364,0.19364l-0.20239,0.12144l-0.16245,0.17123l-0.426,0.27111l-0.08287,0.02763l-0.06498,0.05837l-0.65836,0.34857l-0.17391,0.04291l-0.15112,0.09617l-0.81328,0.27111l-0.3435,0.02643l-0.33423,0.08356l-0.30496,0.00001l-1.93177,0.14864l-0.03614,-0.00614l-0.03515,0.01043l-0.76947,0.03347l-0.10648,0.01682l0.18987,0.29834l0.01653,0.04958l0.03616,0.03773l0.24363,0.42633l0.17584,0.23444l0.14258,0.03889l0.18617,0.10444l0.20838,0.0463l0.15366,0.07683l0.45595,0.06513l0.12427,-0.01554l1.09529,-0.36513l0.03159,-0.02369l1.01801,-0.42866l1.98246,0.85723l0.26795,2.14318l-0.69652,0.85729l-0.30981,0.23238l-0.31752,0.1337l-0.29066,0.18497l-1.62655,0.54222l-0.21283,0.01638l-0.19907,0.07706l-0.61963,0.07748l-0.28418,-0.03445l-0.28474,0.02947l-1.08437,-0.15489l-0.31906,-0.12998l-0.33632,-0.07473l-0.27492,-0.13745l-0.22126,-0.06034l-0.18617,-0.10444l-0.20838,-0.0463l-0.30982,-0.15491l-0.16208,-0.13891l-0.19526,-0.08628l-0.34855,-0.27108l-0.1766,-0.2253l-0.22217,-0.1805l-0.46475,-0.61964l-0.05256,-0.12482l-0.09371,-0.09778l-0.28453,-0.4979l-0.51482,-0.80898l-0.08344,-0.2503l-0.14165,-0.22258l-0.11069,-0.33207l-0.019,-0.01478l-0.00633,-0.06122l-0.01889,-0.05665l-0.03775,-0.49047l-0.0145,-0.01129l-0.00634,-0.06122l-0.01888,-0.05666l-0.03779,-0.491l-0.05069,-0.48982l0.00545,-0.0382l-0.02069,-0.26889l0.03951,-0.23269l-0.02429,-0.23477l0.11617,-0.81329l0.0511,-0.12542l0.00288,-0.1354l0.23235,-0.85201l0.10443,-0.18617l0.0463,-0.20837l0.08679,-0.17359zM367.04597,139.21107l0.08285,0.01407l0.08152,-0.02038l0.03948,-0.00001l0.19288,-0.0643l-0.10713,-0.0357l-0.89307,-0.12756l-0.27286,-0.11116l-0.14696,0.0113l-0.23707,0.11855l-0.15522,0.11642l-0.2563,0.10793l-0.04111,0.02467l-0.05095,0.1019z"/><path d="M275.32667,211.55983c1.01859,2.21036 1.1386,14.56717 1.82844,14.8412c1.13098,0.44926 1.44918,-2.51751 2.07176,-3.84667c0.48172,-1.02843 3.17174,-9.04732 4.75792,-9.28742c3.98376,-0.60306 3.41744,2.68964 5.37594,6.01979c0.60956,1.03647 1.49607,4.28438 1.91307,3.02967c0.67322,-2.02563 1.72774,-7.72324 3.34624,-9.13048c2.50198,-2.17539 4.80585,-0.95554 4.71695,2.53636c-0.09609,3.77415 -5.44133,16.49735 -9.65362,14.33287c-1.65642,-0.85116 -3.353,-6.25239 -4.83255,-6.60268c-1.50445,-0.35619 -1.58467,3.40542 -2.43379,5.06965c-1.35118,2.64826 -4.57902,7.26307 -7.444,6.14807c-3.9989,-1.55629 -4.85529,-17.06833 -4.79771,-21.03c-0.00039,-0.23733 0.02022,-0.48024 0.06358,-0.72557c0.32011,-1.81118 1.75957,-3.07333 3.22442,-2.8353c0.71787,0.03301 1.39807,0.4709 1.86332,1.48049z"/><path d="M307.72987,206.60062c0.23025,0.0407 0.45084,0.10398 0.65987,0.18718l0.0201,-0.04256l3.36544,-0.30818l1.0314,0.89616l0.48132,0.29871l0.09909,0.10212l0.13142,0.05457l0.39253,0.29139l0.01214,0.00542l0.00247,-0.00059l0.00846,0.00547l0.36225,0.16173l0.52294,0.40997l0.55819,0.36051l0.2711,0.28962l0.00793,0.00622l0.00025,0.00252l0.37547,0.40114l0.11728,0.21096l0.1822,0.15831l0.3107,0.44411l0.11938,0.31195l0.20427,0.26426l0.27735,0.6328l0.05868,0.34583l0.15275,0.31578l0.21065,1.0102l-0.01699,0.43092l0.08331,0.42314l-0.07811,1.54295l-0.06172,0.20271l0.01483,0.21138l-0.23346,1.3209l-0.11426,0.25593l-0.02662,0.27901l-0.38881,1.09884l-0.33489,0.50555l-0.26815,0.54391l-1.72111,2.03095l-0.35186,0.25269l-0.28412,0.327l-0.66614,0.46605l-0.0178,0.00681l-0.02658,0.05516l-0.7919,0.25807l-0.77787,0.29768l-0.05536,-0.02614l-0.01813,0.00591l-0.78815,0.0553l-0.08052,-0.01424l-0.07886,0.0216l-0.97685,0.02195l-0.26077,-0.059l-0.26574,0.02936l-4.75085,-0.64507l-0.72894,-0.29109l-0.26297,0.02408l-0.27492,-0.23888l-0.33824,-0.13506l-0.09897,-0.24481l-0.59251,-0.51482l-0.77674,-1.11025l-0.14755,-0.38555l-0.23666,-0.33826l-0.25328,-0.66187l-0.00215,-0.00133l-0.00212,-0.00985l-0.14179,-0.37051l-0.07989,-0.65966l-0.13978,-0.64962l0.0131,-0.39649l-0.00121,-0.01l0.0016,-0.00197l0.03125,-0.94579l0.06624,-0.2321l-0.01689,-0.24078l0.30015,-1.6983l0.19951,-0.44686l0.10747,-0.47742l1.79921,-3.5739l0.19067,-0.22121l0.11201,-0.26971l0.5108,-0.6881l0.4167,-0.34198l0.35356,-0.40692l0.8882,-0.62139c0.44618,-0.31216 0.96791,-0.5163 1.52261,-0.58268l0.09154,-0.03504l0.04554,0.0215c0.27661,-0.02153 0.56042,-0.00884 0.84629,0.0417zM308.62627,212.96003l-0.01391,0.01875l-1.44775,2.87577l-0.17302,0.97894l-0.00248,0.07496l2.73003,0.37069l0.23668,-0.00532l0.77035,-0.90903l0.09098,-0.25716l0.14881,-0.842l0.04572,-0.90313l-0.05091,-0.24414l-0.01704,-0.01822l-0.10309,-0.04603l-0.29064,-0.22786l-0.34106,-0.14163l-0.57609,-0.42766l-0.42634,-0.2646l-0.00671,0.00061l-0.01926,-0.01674l-0.30597,-0.18988l-0.00002,-0.00003z"/><path d="M325.55177,198.63148c1.26733,1.21681 2.08443,2.736 2.56923,4.44617c1.89245,6.67572 -1.2786,16.26128 -2.49847,22.12843c-0.35963,1.72973 -1.73484,3.09878 -3.88588,2.71861c-5.43879,-0.96126 -1.27949,-9.48581 -0.63247,-15.68936c0.31284,-2.9995 0.01957,-6.03188 0.08852,-9.04687c0.02046,-0.89439 0.66687,-3.5893 1.5603,-3.77258z"/><path d="M336.28383,198.98753c1.43673,1.19567 2.29148,2.28356 2.76873,3.40255c1.32856,3.11504 -0.26831,6.47112 -0.37895,13.06448c-0.03963,2.36186 0.40438,4.7853 0.6016,7.14122c0.32222,3.84934 -3.48806,7.0156 -6.52888,2.66916c-1.20998,-1.7295 -0.76239,-7.68356 -0.76259,-9.80979c-0.00037,-4.12016 0.15185,-8.55537 0.26381,-12.67401c0.01954,-0.71855 0.28719,-2.44964 0.90294,-2.67036z"/><path d="M361.31003,206.02279c3.59335,8.47917 -9.17094,6.67933 -12.6936,7.33236c-0.94489,0.17516 0.12659,3.65184 0.16967,3.77607c1.26272,3.64073 19.04609,-7.29186 15.47966,3.58553c-0.58187,1.77469 -6.84304,2.90488 -7.2428,2.99496c-10.05562,2.26618 -18.31323,-2.92153 -14.28194,-13.80331c0.00067,-0.18998 0.01753,-0.3825 0.05172,-0.57595c0.17684,-1.00052 0.78025,-1.81847 1.5901,-2.29984c4.46016,-5.47736 13.11019,-10.01671 16.92717,-1.00981z"/><path d="M380.92323,205.74276c4.90117,2.42208 11.77783,22.46292 2.34849,20.79638c-5.91657,-1.04569 -1.72425,-11.48476 -6.23626,-13.72533c-0.15215,-0.07555 -0.55785,0.51911 -0.67122,0.80076c-1.05129,2.61159 -0.24018,9.08492 -2.64493,9.94698c-0.8803,1.0281 -2.26587,1.57729 -3.69518,1.32467c-2.1508,-0.38012 -3.58621,-2.43187 -3.20609,-4.58266c0.06783,-0.38377 0.18888,-0.74477 0.35421,-1.07674c-0.87731,-7.56962 5.67489,-17.47515 13.75098,-13.48407z"/><path d="M395.4021,200.26474c-1.46728,-0.7249 -1.24222,-2.5254 -1.24222,-2.5254c0.71136,-5.6608 0.18975,-11.04043 0.19577,-16.71234c0.00318,-2.99596 0.68643,-5.89074 0.78677,-8.87351c0.07156,-2.12724 -0.83801,-8.58975 0.50229,-10.20955c2.00642,-2.42483 5.3663,-1.70897 7.87907,-1.59313c1.24765,0.05752 2.5761,-0.30226 3.74432,0.13954c3.26769,1.23578 3.3688,2.88333 4.49735,5.63984c1.88089,4.5941 4.97503,9.83705 4.97513,7.71924c0.00014,-3.01909 1.24257,-6.20298 1.6,-9.2c0.18006,-1.50979 -0.34575,-3.54585 0.85319,-4.48096c1.34546,-1.04939 3.41677,-0.33062 5.11593,-0.17463c0.15395,0.01413 7.68602,1.8824 7.92547,2.13016c3.7191,3.84821 2.34758,6.60071 1.68446,11.05512c-1.05744,7.10326 -1.58167,14.21852 -2.18121,21.37421c0.00012,1.17238 0.12775,5.73126 -0.42656,6.74075c-2.8101,5.11762 -9.62234,3.73752 -14.39153,3.03476c-3.92613,-0.57853 -4.38768,-0.10097 -6.97598,-3.71712c-0.30182,-0.42167 -1.89028,-6.01144 -1.89569,-6.02648c-0.21716,1.65233 -0.98346,8.5308 -0.98346,8.5308c0,0 -4.21347,1.15431 -7.40273,1.02704l-2.75036,-0.97246c0,0 -2.09084,-0.83633 -1.51,-2.90588z"/></g></g></svg>