<svg version="1.1" xmlns="http://www.w3.org/2000/svg" xmlns:xlink="http://www.w3.org/1999/xlink" width="177.90534" height="117.91574" viewBox="0,0,177.90534,117.91574"><g transform="translate(-353.84695,-112.4351)"><g data-paper-data="{&quot;isPaintingLayer&quot;:true}" fill-rule="nonzero" stroke="none" stroke-linecap="butt" stroke-linejoin="miter" stroke-miterlimit="10" stroke-dasharray="" stroke-dashoffset="0" style="mix-blend-mode: normal"><path d="M445.42747,117.9184c-0.00003,0.01164 -0.00015,0.02331 -0.00033,0.03505c-0.04247,2.6434 -3.88524,2.6142 -3.88524,2.6142c-20.78297,-0.15799 -43.38437,2.15145 -59.71105,11.72089c-3.31444,1.94266 -7.59652,3.26938 -10.04089,5.74825c-3.72674,3.77932 -5.61844,9.91658 -8.12198,14.1618c-3.23634,5.48782 -2.41539,10.09057 -0.52428,15.82978c1.34766,4.14153 2.00826,8.94652 4.18287,12.92347c4.24715,7.76722 11.53577,14.91261 20.32978,20.61986c6.04592,3.92375 14.53195,5.40633 22.41103,6.69373c20.70745,3.38347 42.27253,4.70938 62.89336,0.78753c10.37269,-1.97065 23.63903,-4.44914 32.39031,-8.96371c7.39779,-3.81633 10.53693,-9.47556 12.86697,-15.35292c0.80713,-2.03594 2.45343,-3.87169 3.49403,-5.85686c3.67239,-7.00587 2.46866,-15.89805 1.59444,-23.12883c-2.22704,-4.91585 -5.31798,-9.54689 -8.10358,-14.32258c-1.00146,-1.71692 -3.89173,-7.66319 -6.27774,-9.20198c-2.90195,-1.87153 -8.71159,-3.08173 -12.1319,-4.58274c-4.41714,-1.93847 -8.56172,-3.09387 -13.26249,-4.73914c-0.32186,-0.11265 -7.09187,-3.15874 -7.73615,-3.34263c-8.01738,-2.28817 -17.69829,-1.86521 -26.15884,-1.7832c-1.47415,0.01326 -2.85842,0.05973 -4.20829,0.14005zM430.51392,115.4489c0.76483,-1.23621 2.89597,-1.50781 2.89597,-1.50781l1.85077,-0.23403c4.9394,-0.75666 9.22608,-1.16321 14.2668,-1.21531c9.59768,-0.09302 20.16476,-0.36789 29.2571,2.19913c4.17186,1.17783 4.56475,2.22499 8.31877,3.53204c4.83474,1.68332 9.28328,2.96651 13.84932,4.97437c4.07964,1.79398 10.20371,3.16994 13.62367,5.4452c3.06018,2.03589 6.35501,8.42581 7.75904,10.81541c2.99105,5.09065 6.19343,10.01963 8.5142,15.27784c0.84762,6.29277 1.43712,13.04 0.17089,19.32694c-0.88375,4.38791 -3.77453,7.88105 -5.38013,12.04667c-1.86373,4.8353 -4.50437,10.53537 -9.48993,14.35244c-9.79611,7.50013 -27.53784,11.10018 -41.1426,13.68731c-21.88157,4.1567 -44.74771,2.85932 -66.72052,-0.74031c-9.30118,-1.52373 -18.67152,-3.40376 -25.87014,-7.96864c-9.76101,-6.18976 -17.76505,-14.26083 -22.36918,-22.78979c-2.25554,-4.17831 -2.99193,-9.12552 -4.40468,-13.46709c-2.19664,-6.82831 -2.88841,-12.38301 0.8895,-18.95016c2.65931,-4.62268 4.94118,-11.20966 9.02166,-15.28747c0.33077,-0.33056 11.08921,-6.56429 11.30867,-6.69146c14.98609,-8.68411 34.38174,-12.0463 53.65081,-12.80526z" fill="#000000" stroke-width="0.5"/><path d="M449.64528,117.71259c8.46055,-0.082 18.17556,-0.49808 26.19295,1.79009c0.64427,0.18388 7.42476,3.23424 7.74662,3.34688c4.70078,1.64526 8.85993,2.80907 13.27708,4.74754c3.42033,1.50101 9.24009,2.71962 12.14204,4.59116c2.38602,1.53879 5.28504,7.49567 6.2865,9.21259c2.7856,4.77569 5.88403,9.42432 8.11107,14.34017c0.87422,7.23078 2.07548,16.15021 -1.5969,23.15608c-1.0406,1.98517 -2.69037,3.82799 -3.49751,5.86391c-2.33004,5.87736 -5.48486,11.5545 -12.88266,15.37083c-8.75129,4.51457 -22.05113,7.01056 -32.42381,8.9812c-20.62083,3.92186 -42.26947,2.5947 -62.97692,-0.78875c-7.87908,-1.2874 -16.38974,-2.78233 -22.43564,-6.70609c-8.79401,-5.70725 -16.10568,-12.87854 -20.35282,-20.64576c-2.17461,-3.97695 -2.83972,-8.79756 -4.1874,-12.93909c-1.89111,-5.73921 -2.71021,-10.36078 0.52613,-15.84859c2.50354,-4.24522 4.40422,-10.3995 8.13096,-14.17882c2.44439,-2.47888 6.73461,-3.81444 10.04905,-5.7571c16.32668,-9.56944 39.00274,-11.90525 59.78571,-11.74726c0,0 3.84849,0.02924 3.89094,-2.61416c0.00018,-0.01174 0.0003,-0.02342 0.00033,-0.03505c1.34987,-0.08032 2.74012,-0.12652 4.21427,-0.13977z" data-paper-data="{&quot;noHover&quot;:false,&quot;origItem&quot;:[&quot;Path&quot;,{&quot;applyMatrix&quot;:true,&quot;selected&quot;:true,&quot;segments&quot;:[[[414.8573,122.02934],[0.89219,-0.07717],[-0.00002,0.01118]],[[414.85708,122.06302],[0.00012,-0.01128],[-0.02807,2.53986]],[[412.28915,124.57482],[0,0],[-13.7364,-0.1518]],[[372.82342,135.8366],[10.79104,-9.19461],[-2.19066,1.86657]],[[366.18693,141.35971],[1.61561,-2.38178],[-2.46317,3.63129]],[[360.81875,154.96681],[1.6547,-4.07894],[-2.13904,5.27287]],[[360.47224,170.17654],[-1.24992,-5.51441],[0.89073,3.97931]],[[363.23689,182.59381],[-1.4373,-3.82118],[2.80713,7.46299]],[[376.67376,202.40601],[-5.81236,-5.4837],[3.99602,3.77006]],[[391.48622,208.83755],[-5.20764,-1.23697],[13.68649,3.25094]],[[433.05528,209.59423],[-13.62924,3.76824],[6.85578,-1.89346]],[[454.4635,200.98162],[-5.78412,4.33774],[4.88953,-3.66685]],[[462.96786,186.23006],[-1.54003,5.64715],[0.53347,-1.95619]],[[465.27722,180.60261],[-0.68778,1.90741],[2.42725,-6.73146]],[[466.33105,158.37971],[0.57781,6.94756],[-1.47195,-4.7233]],[[460.97504,144.61813],[1.84113,4.58863],[-0.66191,-1.64967]],[[456.82579,135.77658],[1.57703,1.47852],[-1.91803,-1.79822]],[[448.80727,131.37334],[2.26065,1.44222],[-2.91949,-1.86254]],[[440.04149,126.81983],[3.10696,1.58082],[-0.21273,-0.10824]],[[434.92831,123.60813],[0.42583,0.17668],[-5.29905,-2.19854]],[[417.63875,121.89478],[5.59196,-0.07879],[-0.97433,0.01274]]],&quot;closed&quot;:true}]}" fill="#ffffff" stroke-width="0.5"/><path d="M363.10701,228.93094c-1.13593,-2.27186 1.13593,-3.40779 1.13593,-3.40779l-0.14021,0.17236c3.30501,-2.97262 6.11442,-5.94048 8.40494,-9.78329c0,0 1.30683,-2.17805 3.48487,-0.87122c2.17805,1.30683 0.87122,3.48487 0.87122,3.48487c-2.5742,4.26543 -5.68147,7.6305 -9.36267,10.94559l-0.98629,0.5954c0,0 -2.27186,1.13593 -3.40779,-1.13593z" fill="#000000" stroke-width="0.5"/><text transform="translate(399.44069,172.99006) scale(0.64536,0.64536)" font-size="40" xml:space="preserve" fill="#000000" fill-rule="nonzero" stroke="none" stroke-width="1" stroke-linecap="butt" stroke-linejoin="miter" stroke-miterlimit="10" stroke-dasharray="" stroke-dashoffset="0" font-family="Playful" font-weight="normal" text-anchor="start" style="mix-blend-mode: normal"><tspan x="0" dy="0">Danke!</tspan></text></g></g></svg>