<svg version="1.1" xmlns="http://www.w3.org/2000/svg" xmlns:xlink="http://www.w3.org/1999/xlink" width="854" height="711" viewBox="0,0,854,711"><defs><radialGradient cx="312.19443" cy="160.1376" r="427" gradientUnits="userSpaceOnUse" id="color-1"><stop offset="0" stop-color="#ffffff" stop-opacity="0.58431"/><stop offset="1" stop-color="#ffffff" stop-opacity="0"/></radialGradient></defs><g transform="translate(114.80558,195.36241)"><g data-paper-data="{&quot;isPaintingLayer&quot;:true}" fill-rule="nonzero" stroke="none" stroke-linecap="butt" stroke-linejoin="miter" stroke-miterlimit="10" stroke-dasharray="" stroke-dashoffset="0" style="mix-blend-mode: normal"><path d="M-114.80557,515.6376v-711h854v711z" fill="url(#color-1)" stroke-width="0"/><text transform="translate(223.57639,245.80393) scale(0.98754,0.98754)" font-size="40" xml:space="preserve" fill="#000000" fill-rule="nonzero" stroke="none" stroke-width="1" stroke-linecap="butt" stroke-linejoin="miter" stroke-miterlimit="10" stroke-dasharray="" stroke-dashoffset="0" font-family="&quot;DrawnSansSerif-Regular&quot;, Sans Serif" font-weight="normal" text-anchor="start" style="mix-blend-mode: normal"><tspan x="0" dy="0">Try Again</tspan></text><text transform="translate(179.24305,293.60159) scale(1.50655,1.50655)" font-size="40" xml:space="preserve" fill="#000000" fill-rule="nonzero" stroke="none" stroke-width="1" stroke-linecap="butt" stroke-linejoin="miter" stroke-miterlimit="10" stroke-dasharray="" stroke-dashoffset="0" font-family="&quot;DrawnSansSerif-Regular&quot;, Sans Serif" font-weight="normal" text-anchor="start" style="mix-blend-mode: normal"><tspan x="0" dy="0">Next Time</tspan></text><path d="M350.19566,137.56917l0.30641,0.25683c6.86313,5.75264 12.334,12.42504 19.19575,18.17653c5.09081,4.2671 9.74748,7.60682 13.59897,13.00406c0.76112,1.06658 2.47487,1.78712 2.42172,3.09634c-0.05478,1.34933 -5.02253,5.80532 -6.16686,6.9881c-6.89634,7.128 -13.21813,15.83765 -23.58094,17.2785c-6.16447,-4.50789 -10.38449,-7.59593 -15.77936,-12.94133c-5.46493,-5.41482 -11.93243,-10.12523 -17.92394,-15.02909c-12.24493,14.60868 -18.83957,22.47634 -31.0845,37.08503c-1.05548,0.98543 -1.73101,2.79934 -3.16645,2.9563c-2.83104,0.30955 -6.09177,-2.89757 -8.03987,-4.5241c-5.42192,-4.52692 -10.82653,-9.07475 -16.23974,-13.61207c-1.27125,-1.06556 -6.22895,-4.34797 -6.54127,-5.91523c-0.99608,-4.99843 1.56388,-6.75593 4.28342,-10.0628c4.48582,-5.45461 5.47984,-6.53766 10.01643,-11.95c6.09686,-7.2738 12.19372,-14.54759 18.29059,-21.82139c-2.19619,-2.01093 -29.11842,-24.06183 -31.61579,-26.3874c-0.89711,-0.8354 -2.26924,-1.43857 -2.57486,-2.62571c-0.93976,-3.65037 1.97396,-5.93224 3.88583,-8.2742c3.93781,-4.69796 9.90097,-11.87365 13.86891,-16.54615c1.19144,-1.40299 1.36132,-3.77358 2.98088,-4.64818c3.92125,-2.11757 7.34546,1.30993 9.97368,3.50788c6.66434,5.57327 13.53766,10.85604 20.1735,16.38765c2.85983,2.39709 5.71966,4.79419 8.57948,7.19128c7.19129,-8.57949 11.55742,-13.78846 18.74871,-22.36794c2.30394,-2.74869 4.51644,-5.62362 6.93445,-8.27308c0.97515,-1.06849 1.648,-2.62019 2.99932,-3.13644c2.98541,-1.14051 4.98894,0.53442 7.23898,1.81677c6.01035,5.00999 12.19798,9.81149 17.34871,15.60457c2.58222,2.90425 8.12191,5.52367 7.58186,10.41777c-0.13491,1.22262 -1.5042,1.95681 -2.11029,3.02717c-1.10736,1.95559 -1.70277,4.19546 -2.96387,6.05562c-3.49458,5.15465 -8.20452,9.80648 -12.21398,14.58994c-2.9197,3.48331 -5.8394,6.96663 -8.75909,10.44994c0.20976,0.12134 0.33323,0.22484 0.33323,0.22484zM343.5661,180.01801c4.72179,4.67762 9.35261,6.73801 13.63602,11.7145c7.30785,-2.1756 11.72353,-8.8891 16.79609,-14.08832c1.31276,-1.34554 2.60474,-2.71128 3.92155,-4.05285c0.55667,-0.56714 1.0939,-1.20093 1.77648,-1.60068c-1.08667,-0.81064 -2.38295,-2.82934 -2.91929,-3.27253c-3.90359,-3.2256 -6.28029,-5.7858 -10.16112,-9.03869c-6.49012,-5.43999 -11.73921,-11.70474 -18.08439,-17.227c0.53714,-1.00241 -0.40507,-1.79216 -0.40507,-1.79216c-1.0453,-0.87617 -2.98209,-2.49958 -4.28974,-3.59564c3.66485,-4.37231 7.71008,-9.19843 11.10797,-13.25224c3.91254,-4.66781 8.49482,-9.19896 11.92819,-14.21262c1.21399,-1.77275 1.61973,-4.01107 2.80346,-5.80416c0.35801,-0.5423 1.29309,-0.64185 1.48535,-1.26258c0.12311,-0.39748 -0.55313,-0.62369 -0.79658,-0.96116c-1.6791,-2.32753 -3.69222,-3.44566 -5.59939,-5.55409c-4.96327,-5.487 -10.83625,-10.07599 -16.55473,-14.89988c-0.05186,-0.03241 -2.21634,-1.56431 -2.68318,-1.28308c-0.5956,0.35879 -0.69803,1.20598 -1.10999,1.76613c-1.56135,2.123 -3.44567,4.11082 -5.13663,6.1282c-8.30422,9.90726 -13.7833,16.44401 -22.08752,26.35128c0,0 -0.65648,0.78321 -1.62367,0.89875c-0.51465,0.06148 -1.11727,-0.06608 -1.75578,-0.60127c-0.00084,-0.00071 -0.00168,-0.00141 -0.00252,-0.00212c-3.36982,-2.82457 -7.04575,-5.90572 -10.41542,-8.73016c-6.00724,-5.05932 -12.2856,-9.77605 -18.33504,-14.84666c-1.28434,-1.07652 -2.5191,-2.21466 -3.84913,-3.2342c-0.70963,-0.54397 -1.76336,-2.25862 -2.22755,-1.49442c-0.27548,0.45353 0.05308,1.11019 -0.19335,1.58014c-1.13787,2.17 -5.57734,6.70221 -7.15756,8.58746c-2.82515,3.37051 -5.6503,6.74103 -8.47544,10.11154c-1.03864,1.19797 -3.71459,2.26535 -3.00799,3.68473c0.64634,1.29834 2.44184,1.57926 3.55335,2.51092c1.85481,1.55469 26.78847,22.20278 29.15799,24.34477c0.27615,-0.29297 1.68401,-1.62326 3.33043,-0.24324c1.83846,1.54099 0.29747,3.37945 0.29747,3.37945c-0.11795,0.14072 -0.23629,0.28191 -0.35502,0.42356c0.11343,0.55027 0.02316,1.21715 -0.57315,1.92856c-0.59631,0.71142 -1.23716,0.9168 -1.79878,0.90124c-6.04614,7.21329 -12.80073,15.27177 -18.59007,22.17869c-4.53631,5.41199 -5.42097,6.58797 -10.01643,11.95c-0.70343,0.82077 -3.74817,3.44314 -3.43941,5.37475c0.06461,0.40417 0.78241,0.27266 1.11898,0.50556c1.42467,0.98587 2.65556,2.22587 3.98333,3.33881c3.67692,3.08198 7.35384,6.16396 11.03077,9.24594c2.58761,2.16892 5.2096,4.30412 7.75686,6.52045c0.50058,0.43555 0.8068,1.33894 1.47033,1.34189c0.46693,0.00207 0.28614,-0.88897 0.4292,-1.33345c13.09841,-15.62692 20.54653,-24.51282 33.64494,-40.13974c0,0 1.54099,-1.83846 3.37945,-0.29747c1.12154,0.94007 0.98541,1.99085 0.70869,2.66741c6.12289,5.02306 12.73173,9.84268 18.32703,15.38565z" fill="#000000" stroke-width="0.5"/><path d="M343.59242,180.06048c-5.5953,-5.54297 -12.21904,-10.35642 -18.34193,-15.37948c0.27672,-0.67656 0.41266,-1.7273 -0.70888,-2.66737c-1.83846,-1.54099 -3.38757,0.29865 -3.38757,0.29865c-13.09841,15.62692 -20.5732,24.50703 -33.67161,40.13395c-0.14306,0.44448 0.03789,1.3356 -0.42904,1.33353c-0.66353,-0.00295 -0.97096,-0.907 -1.47154,-1.34255c-2.54726,-2.21633 -5.17532,-4.35557 -7.76293,-6.52449c-3.67693,-3.08198 -7.36136,-6.17116 -11.03828,-9.25314c-1.32777,-1.11294 -2.5609,-2.3558 -3.98557,-3.34167c-0.33657,-0.2329 -1.05481,-0.102 -1.11942,-0.50617c-0.30876,-1.93161 2.73494,-4.55551 3.43837,-5.37628c4.59546,-5.36203 5.47784,-6.54188 10.01415,-11.95387c5.78934,-6.90692 12.53819,-14.98593 18.58433,-22.19922c0.56162,0.01556 1.2024,-0.19146 1.79871,-0.90288c0.59631,-0.71141 0.68664,-1.38232 0.57321,-1.93259c0.11873,-0.14165 0.23713,-0.28378 0.35508,-0.4245c0,0 1.54198,-1.84532 -0.29648,-3.38631c-1.64642,-1.38002 -3.05461,-0.04805 -3.33076,0.24492c-2.36952,-2.14199 -27.29833,-22.80427 -29.15314,-24.35896c-1.11151,-0.93166 -2.90681,-1.21296 -3.55315,-2.5113c-0.7066,-1.41938 1.97109,-2.48978 3.00973,-3.68775c2.82514,-3.37051 5.65634,-6.74887 8.48149,-10.11938c1.58022,-1.88525 6.02582,-6.42297 7.16369,-8.59297c0.24643,-0.46995 -0.08149,-1.12709 0.19399,-1.58062c0.46419,-0.7642 1.51847,0.95005 2.2281,1.49402c1.33003,1.01954 2.56562,2.1571 3.84996,3.23362c6.04944,5.07061 12.33525,9.78314 18.34249,14.84246c3.36967,2.82444 7.05555,5.90226 10.42537,8.72683c0.00084,0.00071 0.00168,0.00141 0.00252,0.00212c0.63851,0.53519 1.244,0.6622 1.75865,0.60072c0.96719,-0.11554 1.62678,-0.89915 1.62678,-0.89915c8.30422,-9.90727 13.80501,-16.44131 22.10923,-26.34857c1.69096,-2.01738 3.57726,-4.00444 5.13861,-6.12744c0.41196,-0.56015 0.51464,-1.40724 1.11024,-1.76603c0.46684,-0.28123 2.63335,1.25156 2.68521,1.28397c5.71848,4.82389 11.60531,9.42249 16.56858,14.90949c1.90717,2.10843 3.92439,3.23111 5.60349,5.55864c0.24345,0.33747 0.92028,0.56444 0.79717,0.96192c-0.19226,0.62073 -1.12729,0.72034 -1.4853,1.26264c-1.18373,1.79309 -1.58797,4.03349 -2.80196,5.80624c-3.43337,5.01366 -8.0124,9.55027 -11.92494,14.21808c-3.39789,4.05381 -7.43856,8.89308 -11.10341,13.26539c1.30765,1.09606 3.24534,2.72714 4.29064,3.60331c0,0 0.94223,0.7929 0.40509,1.79531c6.34518,5.52226 11.59097,11.8037 18.08109,17.24369c3.88083,3.25289 6.25603,5.8166 10.15962,9.0422c0.53634,0.44319 1.83206,2.46303 2.91873,3.27367c-0.68258,0.39975 -1.22059,1.03503 -1.77726,1.60217c-1.31681,1.34157 -2.61096,2.7109 -3.92372,4.05644c-5.07256,5.19922 -9.49999,11.92515 -16.80784,14.10075c-4.28341,-4.97649 -8.91782,-7.03443 -13.63961,-11.71205z" data-paper-data="{&quot;noHover&quot;:false,&quot;origItem&quot;:[&quot;Path&quot;,{&quot;applyMatrix&quot;:true,&quot;segments&quot;:[[[343.5661,180.01801],[0,0],[4.72179,4.67762]],[[357.20211,191.73251],[-4.28341,-4.97649],[7.30785,-2.1756]],[[373.99821,177.64419],[-5.07256,5.19922],[1.31276,-1.34554]],[[377.91976,173.59134],[-1.31681,1.34157],[0.55667,-0.56714]],[[379.69624,171.99066],[-0.68258,0.39975],[-1.08667,-0.81064]],[[376.77694,168.71813],[0.53634,0.44319],[-3.90359,-3.2256]],[[366.61583,159.67944],[3.88083,3.25289],[-6.49012,-5.43999]],[[348.53144,142.45244],[6.34518,5.52226],[0.53714,-1.00241]],[[348.12637,140.66028],[0,0],[-1.0453,-0.87617]],[[343.83663,137.06464],[1.30765,1.09606],[3.66485,-4.37231]],[[354.9446,123.8124],[-3.39789,4.05381],[3.91254,-4.66781]],[[366.87279,109.59978],[-3.43337,5.01366],[1.21399,-1.77275]],[[369.67625,103.79562],[-1.18373,1.79309],[0.35801,-0.5423]],[[371.1616,102.53304],[-0.19226,0.62073],[0.12311,-0.39748]],[[370.36502,101.57188],[0.24345,0.33747],[-1.6791,-2.32753]],[[364.76563,96.01779],[1.90717,2.10843],[-4.96327,-5.487]],[[348.2109,81.11791],[5.71848,4.82389],[-0.05186,-0.03241]],[[345.52772,79.83483],[0.46684,-0.28123],[-0.5956,0.35879]],[[344.41773,81.60096],[0.41196,-0.56015],[-1.56135,2.123]],[[339.2811,87.72916],[1.69096,-2.01738],[-8.30422,9.90726]],[[317.19358,114.08044],[8.30422,-9.90727],[0,0]],[[315.56991,114.97919],[0.96719,-0.11554],[-0.51465,0.06148]],[[313.81413,114.37792],[0.63851,0.53519],[-0.00084,-0.00071]],[[313.81161,114.3758],[0.00084,0.00071],[-3.36982,-2.82457]],[[303.39619,105.64564],[3.36967,2.82444],[-6.00724,-5.05932]],[[285.06115,90.79898],[6.04944,5.07061],[-1.28434,-1.07652]],[[281.21202,87.56478],[1.33003,1.01954],[-0.70963,-0.54397]],[[278.98447,86.07036],[0.46419,-0.7642],[-0.27548,0.45353]],[[278.79112,87.6505],[0.24643,-0.46995],[-1.13787,2.17]],[[271.63356,96.23796],[1.58022,-1.88525],[-2.82515,3.37051]],[[263.15812,106.3495],[2.82514,-3.37051],[-1.03864,1.19797]],[[260.15013,110.03423],[-0.7066,-1.41938],[0.64634,1.29834]],[[263.70348,112.54515],[-1.11151,-0.93166],[1.85481,1.55469]],[[292.86147,136.88992],[-2.36952,-2.14199],[0.27615,-0.29297]],[[296.1919,136.64668],[-1.64642,-1.38002],[1.83846,1.54099]],[[296.48937,140.02613],[0,0],[-0.11795,0.14072]],[[296.13434,140.44969],[0.11873,-0.14165],[0.11343,0.55027]],[[295.5612,142.37825],[0.59631,-0.71141],[-0.59631,0.71142]],[[293.76241,143.27949],[0.56162,0.01556],[-6.04614,7.21329]],[[275.17234,165.45818],[5.78934,-6.90692],[-4.53631,5.41199]],[[265.15591,177.40818],[4.59546,-5.36203],[-0.70343,0.82077]],[[261.7165,182.78293],[-0.30876,-1.93161],[0.06461,0.40417]],[[262.83548,183.28849],[-0.33657,-0.2329],[1.42467,0.98587]],[[266.81881,186.6273],[-1.32777,-1.11294],[3.67692,3.08198]],[[277.84958,195.87324],[-3.67693,-3.08198],[2.58761,2.16892]],[[285.60645,202.39369],[-2.54726,-2.21633],[0.50058,0.43555]],[[287.07678,203.73558],[-0.66353,-0.00295],[0.46693,0.00207]],[[287.50597,202.40213],[-0.14306,0.44448],[13.09841,-15.62692]],[[321.15091,162.26239],[-13.09841,15.62692],[0,0]],[[324.53036,161.96492],[-1.83846,-1.54099],[1.12154,0.94007]],[[325.23906,164.63233],[0.27672,-0.67656],[6.12289,5.02306]],[[343.56608,180.01798],[-5.5953,-5.54297],[0,0]]],&quot;closed&quot;:true,&quot;fillColor&quot;:[0,0,0,1]}]}" fill="#d10000" stroke-width="0.5"/><path d="" fill="#9966ff" stroke-width="0.5"/></g></g></svg>