<svg version="1.1" xmlns="http://www.w3.org/2000/svg" xmlns:xlink="http://www.w3.org/1999/xlink" width="155.25" height="169.75" viewBox="0,0,155.25,169.75"><g transform="translate(-454.29862,-98.78906)"><g data-paper-data="{&quot;isPaintingLayer&quot;:true}" fill-rule="nonzero" stroke="none" stroke-linecap="butt" stroke-linejoin="miter" stroke-miterlimit="10" stroke-dasharray="" stroke-dashoffset="0" style="mix-blend-mode: normal"><path d="M454.29863,268.53906v-169.75h155.25v169.75z" fill-opacity="0.00784" fill="#ffffff" stroke-width="0"/><path d="M522.0486,170.53906c0,-2.5 2.5,-2.5 2.5,-2.5l1.00971,0.04854c0.69627,-0.12679 1.43169,-0.11755 2.0888,-0.38035c0.75195,-0.30073 1.37955,-0.84879 2.06462,-1.28072c0.62169,-0.39198 1.24961,-0.77498 1.85553,-1.19093c3.04859,-2.09277 -3.64016,-1.679 -4.77439,-3.45422c-0.83939,-1.31377 -0.75709,-3.14124 -0.40355,-4.65966c1.10528,-4.74713 5.00934,-5.04657 8.90928,-5.08266c0,0 2.5,0 2.5,2.5c0,2.5 -2.5,2.5 -2.5,2.5c-0.23684,-0.00294 -2.92372,-0.17673 -3.46539,0.22357c-0.36127,0.26698 -0.37511,0.82069 -0.62532,1.19376c-0.09802,0.14614 -0.57404,0.29676 -0.40355,0.34034c2.49226,0.637 7.17598,1.31702 6.9942,5.47395c-0.21457,4.9067 -7.45974,7.91102 -11.25964,8.71983l-1.99029,0.04855c0,0 -2.5,0 -2.5,-2.5z" fill="#ffffff" stroke-width="0.5"/><path d="M548.5486,163.28906c0,2.5 -2.5,2.5 -2.5,2.5c-0.0078,0 -0.01567,0 -0.02361,0c-0.0291,1.57163 -0.09372,3.13838 -0.23665,4.72634c0,0 -0.22633,2.48973 -2.71607,2.26339c-2.48973,-0.22634 -2.2634,-2.71607 -2.2634,-2.71607c0.13198,-1.43634 0.1913,-2.85348 0.21797,-4.27408c-0.24514,-0.00712 -2.47824,-0.13681 -2.47824,-2.49958c0,-2.5 2.5,-2.5 2.5,-2.5c0.06762,0 0.13524,0 0.20286,0c0.26572,-0.69608 0.87947,-1.5 2.29714,-1.5c1.41767,0 2.03143,0.80392 2.29714,1.5h0.20286c0,0 2.5,0 2.5,2.5z" fill="#ffffff" stroke-width="0.5"/><path d="M557.23402,165.82495c0.41666,0.75 0.83334,1.5 1.25,2.25l0.43631,1.17354c0,0 0.11714,0.35143 0.12597,0.82881l0.93772,1.49765c0,0 1.21411,2.18539 -0.97129,3.3995c-2.18539,1.2141 -3.3995,-0.97128 -3.3995,-0.97128l-0.63187,-1.51637c-0.191,-0.05087 -0.38348,-0.08791 -0.57715,-0.11322l-2.02222,0.9192c-0.32776,0.15784 -0.69524,0.24629 -1.08337,0.24629c-1.38071,0 -2.5,-1.11929 -2.5,-2.5c0,-0.24775 0.03604,-0.48708 0.10316,-0.71304l0.73493,-2.69475l0.26153,0.07132l0.03107,-0.73961c0.82435,-0.76845 1.6487,-1.53691 2.47306,-2.30536c0,0 1.61695,-1.41483 3.16448,-0.12226c1.08455,0.24087 1.66718,1.2896 1.66718,1.2896z" fill="#ffffff" stroke-width="0.5"/><path d="M567.2986,163.28906c0,1.70681 -1.16528,2.24834 -1.90471,2.42015c-0.74838,1.37717 -0.34529,2.5704 -0.34529,4.57985c0,0 0,2.5 -2.5,2.5c-2.5,0 -2.5,-2.5 -2.5,-2.5c0,-3.69891 -0.16268,-5.36936 2,-8.5l2.75,-1c0,0 2.5,0 2.5,2.5z" fill="#ffffff" stroke-width="0.5"/><path d="M579.7986,158.53906c0,2.5 -2.5,2.5 -2.5,2.5l-2.12182,-0.04137c-0.0347,3.50067 0.24059,6.97528 -1.39211,10.4094c0,0 -1.11803,2.23606 -3.3541,1.11803c-2.23607,-1.11803 -1.11803,-3.3541 -1.11803,-3.3541c1.37874,-2.56167 1.32561,-5.57796 1.27562,-8.62561c-0.26337,-0.00551 -0.52664,-0.00751 -0.78956,-0.00635c0,0 -2.5,0 -2.5,-2.5c0,-2.5 2.5,-2.5 2.5,-2.5c0.3162,0.00118 0.63271,0.00607 0.94928,0.01497c0.08852,-0.67326 0.21825,-1.33604 0.40616,-1.98334l0.8768,-1.2994c0,0 1.76777,-1.76776 3.53553,0c1.35482,1.35482 0.63297,2.70965 0.22179,3.26868c-0.04698,0.17416 -0.09041,0.34826 -0.13053,0.52233c0.04378,0.00833 0.08753,0.01675 0.13126,0.02531l1.50971,-0.04854c0,0 2.5,0 2.5,2.5z" fill="#ffffff" stroke-width="0.5"/><path d="M523.43058,197.80299c2.23607,-1.11803 3.3541,1.11803 3.3541,1.11803l-0.05117,0.03494c0.4619,0.6913 0.68895,1.62024 1.38568,2.07392c0.40491,0.26367 0.94689,-0.21572 1.42942,-0.24083c2.91156,-0.15149 9.67241,0.2078 8.40975,-4.87069c-0.28435,-1.14368 -3.36246,-1.47783 -3.49229,-1.52202c-1.87923,-0.6395 -5.50855,-2.10086 -6.3849,-3.95277c-2.77496,-5.86407 5.01069,-9.43625 9.22716,-10.35598c0,0 2.45146,-0.49029 2.94174,1.96116c0.49029,2.45145 -1.96116,2.94174 -1.96116,2.94174c-1.43823,0.24877 -2.78458,0.97937 -3.99183,1.7997c-0.61522,0.41804 -2.39776,0.92855 -1.78101,1.34432c3.33375,2.2474 8.53985,1.39193 10.12281,6.02521c3.0066,8.80023 -6.5879,11.84592 -13.09026,11.62932c-1.19223,-0.03972 -2.52469,0.33288 -3.57057,-0.24083c-1.35313,-0.74224 -2.07621,-2.28406 -3.11432,-3.42608l-0.55117,-0.96506c0,0 -1.11804,-2.23607 1.11803,-3.35411z" fill="#ffffff" stroke-width="0.5"/><path d="M556.08917,207.41077c-2.37171,0.79057 -3.16227,-1.58113 -3.16227,-1.58113l-0.3783,-1.54057c0,-1.41666 0,-2.83334 0,-4.25c0,-0.33334 0,-1.16666 0,-1.5c0,0 0,-0.06341 0.0101,-0.17003c0.00466,-1.15546 -0.00525,-2.77505 -0.09492,-2.95029c-0.82268,-1.60775 -2.31066,-0.73809 -3.28138,0.17799c-0.23144,3.05217 -0.22771,6.13067 0.10379,9.44357c0,0 0.24876,2.48759 -2.23883,2.73635c-2.4876,0.24876 -2.73635,-2.23883 -2.73635,-2.23883c-0.34447,-3.44688 -0.37463,-6.67284 -0.15774,-9.87161c-0.3172,-0.78127 -0.08027,-1.52013 0.16677,-1.99402c0.30316,-3.05889 0.81983,-6.12978 1.49103,-9.38253l-0.01247,-2.2506c0,0 0,-2.5 2.5,-2.5c2.5,0 2.5,2.5 2.5,2.5l-0.01247,2.74939c-0.34938,1.75339 -0.66195,3.44513 -0.92342,5.10733c2.32748,-0.5625 4.75573,0.06341 6.77072,2.7636c1.04881,1.40546 0.92022,4.78267 0.91517,6.67941c0,0.06676 0,0.13352 0,0.20028c0,1.41666 0,3.33334 0,4.75l0.12171,-0.04057c0,0 0.79057,2.3717 -1.58114,3.16227z" fill="#ffffff" stroke-width="0.5"/><path d="M560.0486,185.53906c0,-1.38071 1.11929,-2.5 2.5,-2.5c1.38071,0 2.5,1.11929 2.5,2.5c0,1.38071 -1.11929,2.5 -2.5,2.5c-1.38071,0 -2.5,-1.11929 -2.5,-2.5z" fill="#ffffff" stroke-width="0.5"/><path d="M577.5486,197.03906c0,1.47063 -0.86509,2.07616 -1.5775,2.32548c0.03643,1.84078 0.35273,3.75123 0.53718,4.72731c0,0 0.44721,2.45968 -2.01246,2.90689c-2.45967,0.44721 -2.90689,-2.01247 -2.90689,-2.01247c-0.26354,-1.49703 -0.5213,-3.43938 -0.54346,-5.44721c-1.28927,0 -2.55825,0 -3.49686,0c0,0 -2.13776,0 -2.45962,-1.97683c0.0704,2.40849 0.20829,4.80573 0.20962,7.22683c0,0 0,2.5 -2.5,2.5c-2.5,0 -2.5,-2.5 -2.5,-2.5c0.0019,-3.26401 -0.2482,-6.48532 -0.25,-9.75v-0.5c0,0 0,-2.5 2.5,-2.5c2.5,0 2.5,2.5 2.5,2.5v0.5c-0.00032,0.54911 0.00649,1.09701 0.01806,1.64411c0.22522,-2.14411 2.48194,-2.14411 2.48194,-2.14411c1.36125,0 2.72249,0 4.08375,0c0.55732,-1.90673 1.5725,-3.54132 3.29823,-4.48607c1.06067,-0.58067 2.41202,-0.17595 3.61803,-0.26393l2.79233,0.55953c0,0 2.44047,0.54233 1.89814,2.9828c-0.54233,2.44047 -2.9828,1.89814 -2.9828,1.89814l-1.70767,-0.44046c-0.73486,-0.14034 -1.27505,0.05403 -1.66553,0.47356c0.37902,0.37031 0.66553,0.93013 0.66553,1.77644z" fill="#ffffff" stroke-width="0.5"/><path d="M593.5486,198.03906c0,2.5 -2.5,2.5 -2.5,2.5l-0.50124,-0.01241c-0.04143,0.0041 -0.08285,0.00813 -0.12429,0.01212c-0.08083,1.11969 -0.12447,2.27234 -0.12447,3.50029c0,0 0,2.5 -2.5,2.5c-2.5,0 -2.5,-2.5 -2.5,-2.5c0,-1.1253 0.03537,-2.2019 0.10101,-3.25294c-0.20036,0.00178 -0.4007,0.00274 -0.60101,0.00294c0,0 -2.5,0 -2.5,-2.5c0,-2.5 2.5,-2.5 2.5,-2.5c0.37882,0.00041 0.7578,-0.00221 1.13678,-0.00835c0.18704,-1.27972 0.40814,-2.57784 0.65355,-3.93886l-0.04033,0.19721c0,0 0,-2.5 2.5,-2.5c2.5,0 2.5,2.5 2.5,2.5l-0.04032,0.69721c-0.17768,0.96993 -0.34071,1.89676 -0.48566,2.80311l0.02598,-0.00032c0,0 2.5,0 2.5,2.5z" fill="#ffffff" stroke-width="0.5"/><path d="M505.9306,196.74175c-2.23607,-0.86852 -1.11803,-2.60555 -1.11803,-2.60555l0.67437,-1.03616c1.493,-2.81664 2.93896,-5.63228 4.32304,-8.47437c-8.35715,1.22627 -15.64631,6.07304 -17.8242,12.55964c-1.34198,3.99694 -0.04256,8.46627 -0.97747,12.53806l0.04032,0.62363c0,0 0,1.94206 -2.5,1.94206c-2.5,0 -2.5,-1.94206 -2.5,-1.94206l0.04032,-1.31844c0.99239,-4.14737 -0.3411,-8.60344 1.02254,-12.70874c2.74836,-8.27409 12.03589,-14.30203 22.69335,-15.61352c-1.54435,-1.51458 -3.28416,-2.47846 -6.27376,-3.83668l-2.05744,-0.9981c0,0 -2.12,-1.02929 -0.795,-2.67615c1.325,-1.64686 3.445,-0.61757 3.445,-0.61757l1.94255,0.94396c5.10967,2.34716 7.61903,4.13169 10.42719,8.12381c0,0 1.19713,1.70493 -0.99761,2.63488c-0.07526,0.03189 -0.14935,0.06068 -0.22226,0.08655c-1.63704,3.43348 -3.36648,6.82232 -5.16317,10.21192l-0.82563,1.29432c0,0 -1.11803,1.73703 -3.3541,0.86852z" fill="#ffffff" stroke-width="0.5"/></g></g></svg>