<svg version="1.1" xmlns="http://www.w3.org/2000/svg" xmlns:xlink="http://www.w3.org/1999/xlink" width="165.23517" height="80.21425" viewBox="0,0,165.23517,80.21425"><g transform="translate(-459.7494,-274.14819)"><g data-paper-data="{&quot;isPaintingLayer&quot;:true}" fill-opacity="0.60784" fill="#000000" fill-rule="nonzero" stroke="none" stroke-linecap="butt" stroke-linejoin="miter" stroke-miterlimit="10" stroke-dasharray="" stroke-dashoffset="0" style="mix-blend-mode: normal"><path d="M560.0855,278.38967c-3.14189,-0.03145 -6.49369,0.23446 -9.63358,1.07172c1.35456,0.73498 2.61052,1.5848 3.40594,2.20979l0.03713,0.00169l0.09935,-0.03754l0.07547,-0.00881l0.12396,-0.04987l0.15667,-0.02168l0.13857,-0.07626l0.40433,-0.10675l0.01864,-0.02105l0.07183,-0.00283l0.06743,-0.01781l0.57507,-0.00756l0.57468,-0.02268l0.06828,0.01423l0.07189,-0.00095l0.00584,0.00594l0.33287,-0.03886l0.69757,-0.10775l0.23392,-0.10955l0.02168,-0.03166l0.63884,-0.10559l0.63549,-0.1242l0.03137,0.0221l0.86126,0.07006l1.93362,-0.07634l0.48378,-0.04167l0.02285,-0.04393l0.36518,-0.10676l0.32783,-0.1931l0.16947,0.0477l0.37571,-0.10985l1.07139,-0.0423l0.05975,0.01246l0.05933,-0.01432l1.32597,0.01078l0.24136,0.06243l0.24911,-0.00983l0.38187,0.07961l0.34575,-0.01365l0.55849,-0.07728l0.06652,0.05261l0.10063,-0.00397l1.0234,0.21334l1.17529,0.12487l0.11935,0.04368l0.127,-0.00501l0.10281,0.02143l1.42663,-0.03036l1.04865,-0.0414l0.30165,0.06288l0.24155,-0.00953l0.05554,-0.00649l0.39903,0.05166l0.40205,-0.01587l4.48016,0.93396c-0.9049,-0.84813 -1.83914,-1.67191 -2.70936,-2.52396c-3.89987,-0.8146 -8.03443,-1.73339 -12.04521,-1.39172c-1.34093,0.11423 -2.65593,0.54928 -4.00165,0.53581zM563.79026,274.22528c4.09135,-0.32993 8.25543,0.45558 12.25676,1.28399c0.57853,-0.08806 1.09063,0.13022 1.09063,0.13022l1.19375,0.65787c2.34405,2.38323 5.02348,4.46814 6.87537,7.24411c0,0 0.48413,0.73914 0.26285,1.5248c0.04904,0.06146 0.09517,0.12516 0.13821,0.19088l0.20151,0.30765l0.1623,0.46636l0.1433,0.12687l0.01269,0.32136l0.10571,0.30375l-0.08698,0.17049l0.01948,0.49341l-0.0821,0.39382l-0.00337,0.41515l-0.06242,0.24136l0.00983,0.24911l-0.0904,0.43365l-0.02086,0.51635l0.01488,1.13168l-0.00984,0.04167l0.00955,0.04173l-0.04035,1.99986l0.1292,1.77209l-0.02032,0.11686l0.02644,0.11563l-0.0427,2.11624l-0.01461,0.05381l0.01006,0.05484l-0.11507,1.80609l-0.05863,1.45159l0.0595,1.50721l-0.02682,0.12863l0.0237,0.12924l-0.17096,2.68336l-0.00482,0.59351l-0.02339,0.09044l0.01523,0.09216l-0.085,1.04486l-0.01387,0.04101l0.00562,0.04292l-0.1646,1.42672l-0.04075,0.10831l0.00456,0.11563l-0.20252,0.97147l-0.00974,0.1528l0.02091,0.11405l0.16308,0.46859l-0.05675,0.11124l0.03686,0.20101l-0.05404,0.84823l-0.01538,1.89286l0.01541,1.17206l-0.01576,0.06676l0.01394,0.06717l-0.03192,0.79028l-0.05889,0.20074l0.00563,0.1427l0.00648,0.05554l-0.00434,0.03355l0.02355,0.06769l0.1433,0.12687l0.01269,0.32136l0.1057,0.30375l-0.08698,0.17049l0.01948,0.49342l-0.21325,1.02295l0.00882,0.67122l-0.49039,0.48249l-0.17754,0.66464l-1.13017,0.62198l-1.12446,0.29688l-0.27563,0.00362l-0.26457,0.07735l-0.26115,0.01031l-1.42103,0.37518l-0.12709,0.00167l-0.11689,0.0499l-2.8348,0.45299l-1.89107,0.3821l-0.1061,-0.00484l-0.09936,0.03753l-0.81681,0.09537l-0.11476,-0.01486l-0.11151,0.03093l-2.27007,0.05806l-0.14957,-0.03335l-0.15152,0.02292l-1.03745,-0.09871l-1.06338,0.01398l-0.06676,-0.01576l-0.06717,0.01394l-0.79028,-0.03192l-0.01109,-0.00326l-0.24785,0.00978l-0.30375,0.1057l-0.17049,-0.08698l-0.49342,0.01948l-0.43365,-0.0904l-2.12351,-0.08578l-1.28561,-0.01045l-0.14859,-0.03843l-0.15244,0.0178l-1.19505,-0.15472l-1.05472,0.27847l-0.01864,0.02105l-0.07184,0.00283l-0.06743,0.01781l-0.57507,0.00756l-0.20081,0.00793l-0.02895,0.03271l-0.32137,0.01269l-0.30375,0.1057l-0.17049,-0.08698l-0.49341,0.01948l-2.45578,-0.51194l-0.21485,0.03798l-0.47289,-0.03315l-0.47367,0.0187l-0.05801,-0.01209l-0.83427,0.22026l-0.1062,0.00139l-0.09698,0.04331l-0.68952,0.1219l-1.28686,-0.09022l-0.37726,-0.45326l-0.56974,-0.15219l-0.17848,-0.32431c-2.54656,-0.91589 -6.09973,-3.14514 -6.70209,-4.8415c-1.27112,-0.35175 -1.23418,-1.79051 -1.23418,-1.79051l0.04153,-1.27418c-0.48806,-6.69434 -0.40812,-13.59836 -0.32556,-20.28584c0.03237,-2.62169 0.01474,-5.43178 0.19683,-8.03558c0.13814,-1.9752 0.65995,-3.11834 0.36279,-5.11907c0,0 -0.24952,-1.80318 1.55367,-2.0527c0.02488,-0.00344 0.04945,-0.00649 0.07374,-0.00916c0.11688,-0.10535 0.20207,-0.16115 0.20207,-0.16115l0.37921,-0.22651c4.58656,-2.13433 10.02137,-2.87989 15.02113,-2.78469c1.23133,0.02344 2.42974,-0.42501 3.6573,-0.524zM546.27972,314.17081c1.10853,0.02117 2.43821,0.39775 3.69195,0.90021l-0.01483,-0.37565l-0.0658,-0.90251l0.05982,-0.34396l-0.01377,-0.34885l0.07632,-0.3661l-0.09595,-0.82178l0.02921,-0.22563l-0.04103,-0.22378l0.11692,-1.83513l0.02602,-0.08164l-0.09121,-0.34549l-0.00439,-0.33429l-0.07845,-0.32499l0.00539,-0.66298l0.01781,-0.06885l-0.01283,-0.06995l0.05846,-0.91756l0.00686,-0.02152l-0.00368,-0.02228l0.07274,-0.89421l-0.05748,-1.45606l0.06288,-0.30165l-0.01216,-0.3079l0.01672,-0.08022l-0.03014,-0.7635l0.06288,-0.30165l-0.00915,-0.23169l-0.03314,-0.09524l-0.03846,-0.42662l-0.10051,-0.41639l0.00538,-0.66298l0.06243,-0.24136l-0.00983,-0.24911l0.0821,-0.39382l0.0021,-0.25932l-0.05667,-0.48535l-0.02881,-0.10912l-0.00439,-0.33429l-0.07845,-0.32499l0.00053,-0.06506l-0.0068,-0.00426l-0.01527,-0.07359l-0.01262,-0.02694l-0.11373,-0.58197l-0.12048,-0.58061l0.0012,-0.02973l-0.01442,-0.07376l0.01845,-0.0262l0.02505,-0.62026l0.00506,-0.62263l0.06243,-0.24136l-0.02348,-0.59486l-0.07728,-0.55849l0.05261,-0.06651l-0.00397,-0.10063l0.12287,-0.58938l-0.05129,-1.29919l0.06288,-0.30165l-0.00516,-0.13072l-0.00456,-0.02198l0.00187,-0.04624l-0.0043,-0.10897l0.01079,-0.05178l0.02356,-0.58329l0.02456,-0.08372l-0.05721,-0.32359l0.02336,-0.33323l-0.03234,-0.12249l-0.02105,-0.01864l-0.00283,-0.07183l-0.01781,-0.06743l-0.00756,-0.57507l-0.02269,-0.57468l0.01423,-0.06828l-0.00095,-0.07189l0.02004,-0.01972l0.10184,-0.48852l0.00337,-0.41515l0.06243,-0.24136l-0.00983,-0.24911l0.15921,-0.76374l-0.02115,-0.5357l0.01423,-0.06828l-0.00095,-0.07189l0.02004,-0.01972l0.08335,-0.39981c-0.8573,-0.4785 -2.22042,-1.17914 -3.45237,-2.0312c-0.1001,3.24423 -0.63168,6.5772 -0.68466,9.77162c-0.10891,6.5674 -0.16303,13.38365 0.31644,19.9601zM581.12515,287.37737c-0.00204,-0.00648 -0.00406,-0.01296 -0.00604,-0.01946l-7.38155,-1.53879l-0.00496,0.00058l-0.39903,-0.05166l-0.40205,0.01588l-0.08022,-0.01672l-0.7635,0.03014l-0.02291,-0.00478l-0.02258,0.00616l-1.73438,0.03691l-0.27858,-0.06338l-0.28548,0.01127l-0.25966,-0.05413l-1.17529,-0.12487l-0.11935,-0.04368l-0.127,0.00501l-0.50916,-0.10614l-0.34575,0.01365l-0.55849,0.07728l-0.06651,-0.05261l-0.10063,0.00397l-0.77569,-0.1617l-1.01857,-0.00828l-0.20092,0.00794l-0.22289,0.07657l-0.37708,0.22209l-0.14808,-0.04168l-0.281,0.09653l-1.3525,0.11652l-0.05887,-0.00945l-0.05723,0.01673l-2.14278,0.08459l-0.15025,-0.03132l-0.15142,0.02503l-0.39535,-0.03216l-0.32417,0.06335l-0.32908,0.13844l-1.09792,0.16958l-0.04734,-0.00436l-0.04448,0.0168l-0.81681,0.09537l-0.39903,-0.05166l-0.22453,0.00886l-0.23886,0.09609l-0.33117,0.04582l-0.2893,0.1093l-0.04886,0.23438l0.02115,0.5357l-0.01423,0.06828l0.00094,0.07188l-0.02004,0.01972l-0.12838,0.61581l-0.00338,0.41515l-0.06242,0.24136l0.00983,0.24911l-0.0673,0.32286l0.00692,0.52634l0.10636,0.6016l-0.03315,0.47289l0.01171,0.2965l0.00456,0.02198l-0.00187,0.04623l0.0043,0.10897l-0.0108,0.05179l-0.02356,0.58329l-0.04861,0.16568l0.05907,1.49622l-0.06288,0.30165l0.01216,0.3079l-0.05307,0.25458l0.01365,0.34575l0.07728,0.55849l-0.05261,0.06652l0.00397,0.10063l-0.0821,0.39382l-0.00337,0.41515l-0.01038,0.04012l0.00842,0.04057l-0.00728,0.18043l0.01688,0.03603l0.10622,0.54353l0.12995,0.53836l-0.00099,0.12152l0.01225,0.06265l-0.01291,0.01832l-0.00229,0.28284l0.05597,0.14815l0.09537,0.81681l-0.02031,0.15686l0.03711,0.15375l-0.00539,0.66298l-0.06243,0.24136l0.00984,0.24911l-0.07964,0.38205l0.10439,0.29997l0.00128,0.01417l0.03421,0.0303l0.02453,0.62118l0.05582,0.61916l-0.03002,0.03446l0.00056,0.01422l-0.06979,0.3348l0.03014,0.7635l-0.06288,0.30165l0.01215,0.30789l-0.01672,0.08022l0.05129,1.29919l-0.03132,0.15025l0.02503,0.15142l-0.08321,1.02297l-0.05264,0.82632l-0.0021,0.25833l0.0954,0.36135l0.02105,0.01864l0.00283,0.07183l0.01781,0.06743l0.00756,0.57507l0.02268,0.57468l-0.01423,0.06828l0.00095,0.07189l-0.02004,0.01972l-0.00998,0.04785l-0.09125,1.43236l0.11687,1.00104l-0.05166,0.39903l0.01587,0.40205l-0.08767,0.42056l0.04334,0.59447l-0.00733,0.04218l0.01201,0.04109l0.03146,0.79684l0.00408,0.01546l0.00173,0.13182l0.00503,0.12727l-0.00315,0.01512l0.00396,0.30086l0.02268,0.57468l-0.01423,0.06828l0.00095,0.07189l-0.02004,0.01972l-0.03647,0.17492l0.00592,0.14997l0.35168,0.07331l0.21485,-0.03798l0.47289,0.03315l0.47368,-0.0187l2.16393,0.4511l0.10374,-0.0041l0.30375,-0.10571l0.17049,0.08698l0.49341,-0.01948l0.05801,0.01209l1.11539,-0.29448l0.48176,-0.00633l0.47855,-0.05587l1.53141,0.19827l1.17483,0.00955l0.04011,0.01038l0.04057,-0.00842l2.37083,0.09577l0.10592,0.03107l0.28031,-0.01106l0.30375,-0.10571l0.17049,0.08699l0.49341,-0.01948l0.30637,0.06387l0.51635,0.02086l1.13169,-0.01488l0.13393,0.03162l0.13606,-0.02058l1.02192,0.09723l2.00572,-0.0513l0.60063,-0.07013l1.83922,-0.37162l0.05246,0.0024l0.0483,-0.02062l2.76209,-0.44138l1.31439,-0.34702l-0.04117,-0.35257l0.05166,-0.39903l-0.01587,-0.40205l0.03733,-0.17907l0.02086,-0.51635l-0.01488,-1.13169l0.00629,-0.02664l-0.00642,-0.02661l0.01616,-1.98895l0.01781,-0.06885l-0.01283,-0.06995l0.02105,-0.33032l-0.02092,-0.11405l-0.16307,-0.4686l0.05675,-0.11124l-0.03686,-0.20101l0.05846,-0.91756l0.05472,-0.17165l-0.00711,-0.18002l0.21565,-1.03446l0.14675,-1.27204l0.07416,-0.91167l0.00464,-0.57154l0.01781,-0.06885l-0.01283,-0.06995l0.16717,-2.62383l-0.05835,-1.47806l0.02082,-0.09988l-0.02073,-0.09989l0.06385,-1.58055l0.00842,-0.0287l-0.0054,-0.02942l0.11346,-1.78086l0.03925,-1.94548l-0.1292,-1.77209l0.02033,-0.11686l-0.02644,-0.11563l0.04185,-2.07455l-0.01521,-1.15698l0.01576,-0.06677l-0.01394,-0.06717l0.03192,-0.79028l0.05889,-0.20074l-0.00825,-0.20904l0.0821,-0.39382l0.00337,-0.41515l0.04525,-0.17495z" data-paper-data="{&quot;index&quot;:null}" stroke-width="0.5"/><path d="M566.17798,306.13892l-0.08786,0.14932c0.79147,-0.92399 3.29836,-2.36212 3.57342,-3.55352c0.38278,-1.65799 -3.11008,-4.77064 -4.11114,-5.85215c0,0 -1.23419,-1.3381 0.10391,-2.57229c1.3381,-1.23419 2.57229,0.10391 2.57229,0.10391c2.09651,2.28027 5.69544,5.60194 4.99905,9.06352c-0.52681,2.61867 -2.85675,3.33505 -4.35168,5.15446l-0.70316,0.55234c0,0 -1.52279,0.99741 -2.52021,-0.52538c-0.99741,-1.52279 0.52538,-2.52021 0.52538,-2.52021z" data-paper-data="{&quot;index&quot;:null}" stroke-width="0.5"/><text transform="translate(594.87877,307.88852) scale(0.59306,0.59306)" font-size="40" xml:space="preserve" fill-opacity="0.60784" fill="#000000" fill-rule="nonzero" stroke="none" stroke-width="1" stroke-linecap="butt" stroke-linejoin="miter" stroke-miterlimit="10" stroke-dasharray="" stroke-dashoffset="0" font-family="&quot;DrawnSansSerif-Regular&quot;, Sans Serif" font-weight="normal" text-anchor="start" style="mix-blend-mode: normal"><tspan x="0" dy="0">to</tspan></text><text transform="translate(460.04593,345.3018) scale(0.59306,0.59306)" font-size="40" xml:space="preserve" fill-opacity="0.60784" fill="#000000" fill-rule="nonzero" stroke="none" stroke-width="1" stroke-linecap="butt" stroke-linejoin="miter" stroke-miterlimit="10" stroke-dasharray="" stroke-dashoffset="0" font-family="&quot;DrawnSansSerif-Regular&quot;, Sans Serif" font-weight="normal" text-anchor="start" style="mix-blend-mode: normal"><tspan x="0" dy="0">look at Rooms</tspan></text></g></g></svg>