<svg version="1.1" xmlns="http://www.w3.org/2000/svg" xmlns:xlink="http://www.w3.org/1999/xlink" width="250.5" height="50.08323" viewBox="0,0,250.5,50.08323"><defs><radialGradient cx="283.69357" cy="181.84307" r="125.25" gradientUnits="userSpaceOnUse" id="color-1"><stop offset="0" stop-color="#452f00" stop-opacity="0"/><stop offset="1" stop-color="#452f00" stop-opacity="0.66667"/></radialGradient></defs><g transform="translate(-158.44357,-155.63484)"><g data-paper-data="{&quot;isPaintingLayer&quot;:true}" fill-rule="nonzero" stroke="none" stroke-linecap="butt" stroke-linejoin="miter" stroke-miterlimit="10" stroke-dasharray="" stroke-dashoffset="0" style="mix-blend-mode: normal"><path d="M273.56835,195.52261c0,0 3.5989,-13.91276 4.14975,-21.02207c0.53144,-6.8588 -0.55495,-18.8657 -0.55495,-18.8657l38.09828,9.33824c0,0 -0.13202,10.74544 2.53225,16.01392c3.17283,6.27415 15.24694,19.1437 15.24694,19.1437z" data-paper-data="{&quot;index&quot;:null}" fill="#ffecd3" stroke-width="0"/><path d="M337.64844,187.01282c0,2.45688 -5.01137,4.44858 -11.19321,4.44858c-6.18184,0 -11.19321,-1.9917 -11.19321,-4.44858c0,-2.45688 44.61211,-19.65987 44.61211,-19.65987l6.55752,1.88217l-1.72227,1.78952l-2.36675,-0.87937l-1.25767,0.71208c0,0 3.34555,0.71892 2.72858,1.10421c-0.7594,0.47424 -1.66891,0.95986 -2.5093,1.4526c-0.75055,0.44006 -3.0323,-0.39999 -3.82846,0.04838c-9.3095,5.24275 -19.82733,12.44166 -19.82733,13.55029z" fill="#898989" stroke-width="0"/><path d="M349.58786,188.98872c0,7.22888 -14.52141,15.37644 -26.45256,15.37644c-11.93115,0 -21.51177,-7.2326 -21.51177,-14.46148c0,-5.68139 10.73212,-11.4323 19.08203,-13.24241c2.27434,-0.49304 4.72493,-0.76159 7.27904,-0.76159c11.93115,0 21.60327,5.86016 21.60327,13.08904zM313.38389,188.99029c-1.78322,0 -3.22881,1.44559 -3.22881,3.22881c0,0.81169 0.29951,1.55342 0.79404,2.12071c0.58564,2.9282 11.02593,6.39019 12.11049,3.13653c1.30367,-3.91102 -8.55518,-8.48605 -9.67572,-8.48605z" fill="#55432c" stroke-width="0"/><path d="M301.70852,194.75048c1.29152,0 1.29152,1.29152 1.29152,1.29152l-0.06628,0.6248c1.19361,4.3875 10.94438,1.73942 9.12156,-3.31605c0,0 -0.40842,-1.22525 0.81683,-1.63366c1.22525,-0.40842 1.63366,0.81683 1.63366,0.81683c2.57508,8.16811 -11.22425,12.53658 -14.02255,4.94971l-0.06628,-1.44163c0,0 0,-1.29152 1.29152,-1.29152z" fill="#6a6258" stroke-width="0.5"/><text transform="translate(289.47186,181.90836) scale(0.5,0.5)" font-size="40" xml:space="preserve" fill="#454039" fill-rule="nonzero" stroke="none" stroke-width="1" stroke-linecap="butt" stroke-linejoin="miter" stroke-miterlimit="10" stroke-dasharray="" stroke-dashoffset="0" font-family="Playful" font-weight="normal" text-anchor="start" style="mix-blend-mode: normal"><tspan x="0" dy="0">3</tspan></text><path d="M158.44357,205.71807v-47.75h250.5v47.75z" fill="url(#color-1)" stroke-width="0"/></g></g></svg>