<svg version="1.1" xmlns="http://www.w3.org/2000/svg" xmlns:xlink="http://www.w3.org/1999/xlink" width="1379.43393" height="1315.32646" viewBox="0,0,1379.43393,1315.32646"><defs><linearGradient x1="292.29523" y1="218.46093" x2="566.09363" y2="-386.46092" gradientUnits="userSpaceOnUse" id="color-1"><stop offset="0" stop-color="#ffffff" stop-opacity="0"/><stop offset="1" stop-color="#ffffff"/></linearGradient></defs><g transform="translate(173.2395,597.17023)"><g data-paper-data="{&quot;isPaintingLayer&quot;:true}" fill-rule="nonzero" stroke="none" stroke-linecap="butt" stroke-linejoin="miter" stroke-miterlimit="10" stroke-dasharray="" stroke-dashoffset="0" style="mix-blend-mode: normal"><path d="M-163.80557,352.15623v-429h1026v429z" fill="#cbe4ff" stroke-width="0"/><path d="M-102.80557,718.15623v-536c0,0 76.12672,-6.3474 160.9788,-5.29339c2.65089,0.03293 5.31713,4.06723 7.99708,4.10294c50.09247,0.66762 97.97832,5.19045 147.02412,5.19045c45.34734,0 159.23794,-27.14402 233.00198,-27.3774c314.9825,-0.99657 759.99802,23.3774 759.99802,23.3774v536z" fill="#28803e" stroke-width="0"/><path d="M-51.80557,556.15623c0,0 97.92311,-110.24536 171.46316,-194.46875c22.13672,-25.35258 130.53684,-69.2534 130.53684,-88.53125c0,-5.87451 -75.51663,-19.729 -157.02193,-22.30607c-69.54104,-2.19878 -78.97807,-33.19561 -78.97807,-36.69393c0,-36.77052 38,-16 38,-16c0,0 17.06078,18.22619 36.20897,16.79409c57.03575,-4.26574 179.82584,-25.49977 301.79103,32.20591c77.64171,36.7348 -41.25043,91.28008 -89.62571,149.8306c-53.12811,64.30307 99.62571,117.1694 99.62571,117.1694z" fill="#3c3530" stroke-width="0"/><path d="M343.36894,244.8279c-2.19144,0.11475 -4.3836,0.2189 -6.57975,0.26701c-8.3373,0.18264 -16.67459,0.36529 -25.01189,0.54793c-0.05414,-0.03383 -0.1082,-0.06773 -0.16218,-0.10172c-13.56056,-8.53762 -26.90189,-16.5067 -40.81033,-24.46653c-3.76243,-2.15325 -95.57272,1.77603 -99.34815,-0.35443c111.12262,-53.61811 506.46666,-39.2869 506.46666,-39.2869c0,0 2.44695,13.98387 5.80376,43.78294c0.31936,2.83507 -182.39006,-5.25875 -231.48014,-2.39704c-57.53585,3.35406 -109.79739,15.75443 -109.2611,20.51517c0.05417,0.48085 0.18325,0.97901 0.38311,1.49355z" data-paper-data="{&quot;index&quot;:null}" fill="#3c3530" stroke-width="0"/><path d="M1031.62836,-175.75161l-273.7984,604.92184l-931.06946,-421.41862l273.7984,-604.92184z" data-paper-data="{&quot;index&quot;:null}" fill="url(#color-1)" stroke-width="0"/><path d="M853.5,166.15623c0,2.5 -2.55347,2.5 -2.55347,2.5h-2.04278c-5.80488,0 -11.73669,0.33652 -17.52975,-0.0053c-11.11485,-0.65583 -22.233,-3.12803 -33.13645,-5.18747c-12.62155,-2.39216 -25.39749,-1.80723 -38.1947,-1.80723c-19.4064,0 -38.81281,0 -58.21921,0c-32.68447,0 -65.36894,0 -98.0534,0c-32.68447,0 -65.36894,0 -98.0534,0c-23.79581,0 -47.65023,-0.49103 -71.44145,-0.0006c-4.42022,0.09112 -8.5949,0.99321 -13.0219,0.98187c-14.48622,3.54571 -30.22675,-0.82954 -44.94256,1.00017c-5.44606,0.67715 -10.86514,2.21865 -16.28549,2.99256c-2.99974,0.4283 -6.0698,0.37931 -9.03987,0.97362c-2.46509,0.49326 -4.77065,1.66669 -7.26067,2.0201c-1.28921,0.18298 -2.64387,-0.34296 -3.90791,-0.0346c-1.3779,0.33614 -2.52421,1.27439 -3.78631,1.91159c-1.23625,0.30805 -8.34681,2.08928 -8.74504,2.13656c-1.54861,0.18383 -3.16637,-0.46194 -4.67898,-0.08854c-1.1903,0.29384 -1.89771,1.62556 -3.06417,2c-1.07861,0.34624 -2.28524,-0.10908 -3.40441,0.07645c-2.84874,0.47226 -5.54384,1.73491 -8.4182,2.02213c-1.69225,0.16909 -3.41029,-0.14806 -5.1031,0.01555c-3.0715,0.29686 -5.98103,1.55096 -9.037,1.97441c-0.89921,0.1246 -1.86373,-0.35001 -2.72371,-0.06425c-3.25218,1.08064 -6.07165,3.37486 -9.43593,4.0507c-1.81634,0.36488 -3.86785,-0.89975 -5.56019,-0.15802c-0.8756,0.38376 -1.11856,1.70811 -2.03187,1.99555c-1.59104,0.50074 -3.34964,0.02252 -5.00861,0.22026c-4.7534,0.56659 -5.12492,1.43647 -10.02731,1.96233c-0.14904,0.01599 -8.11943,0.01217 -8.42273,0.01217c-12.9376,0 -25.8752,0 -38.81281,0c-6.03493,0 -12.71423,0.79808 -18.697,-0.01873c-1.39031,-0.18982 -2.69663,-0.80068 -4.08556,-1c-6.02637,-0.86483 -12.99292,0.01873 -19.09441,0.01873c-30.30123,0 -60.60245,0 -90.90368,0c-31.66308,0 -63.32616,0 -94.98923,0c-14.63992,0 -29.27984,0 -43.91975,0c-9.70869,0 -19.44787,-0.35984 -28.9649,1.91625c-3.3038,0.79013 -5.79189,2.87287 -9.04042,3.95546c0,0 -2.42244,0.79057 -3.22992,-1.58114c-0.80748,-2.37171 1.61496,-3.16228 1.61496,-3.16228c3.39953,-1.08062 5.83188,-3.16445 9.34459,-4.04454c9.90652,-2.48203 20.15259,-2.08375 30.27569,-2.08375c14.63992,0 29.27984,0 43.91975,0c31.66308,0 63.32616,0 94.98923,0c30.30123,0 60.60245,0 90.90368,0c6.34544,0 13.44001,-0.83844 19.71839,0.01873c1.39031,0.18982 2.69663,0.80068 4.08556,1c5.743,0.82417 12.26995,-0.01873 18.07302,-0.01873c12.9376,0 25.8752,0 38.81281,0c2.63984,0 5.29572,0.29677 7.9195,0.01217c3.38003,-0.36663 6.62039,-1.62443 10.00379,-1.95999c1.18135,-0.11717 2.4346,0.51563 3.5592,0.14258c0.9155,-0.30368 1.14648,-1.67778 2.05369,-2.00445c3.34196,-1.2034 3.73199,0.43087 6.69649,-0.15802c3.20672,-0.63701 5.84033,-2.94988 8.94908,-3.9493c1.07843,-0.3467 2.28115,0.0943 3.40462,-0.06425c3.09204,-0.43639 6.04193,-1.67511 9.14967,-1.98675c1.69472,-0.16995 3.41494,0.14296 5.11074,-0.0163c2.77779,-0.26088 5.36949,-1.53792 8.12244,-1.98486c0.89611,-0.14548 1.86378,0.3623 2.72393,0.07645c1.16242,-0.3863 1.87273,-1.71062 3.06417,-2c1.79093,-0.43498 3.70393,0.1354 5.53491,-0.08854c2.59052,-0.31683 5.06133,-1.25598 7.59719,-1.86344c1.4616,-0.69614 2.80824,-1.70138 4.38481,-2.08841c1.37845,-0.3384 2.85594,0.15922 4.26321,-0.0346c2.41737,-0.33294 4.6467,-1.503 7.03879,-1.9799c3.07155,-0.61236 6.24352,-0.58245 9.34514,-1.02638c5.45878,-0.7813 10.91252,-2.33631 16.39898,-3.00744c5.694,-0.69652 11.93812,-0.01856 17.6742,-0.01856c8.89915,0 18.60947,1.13743 27.26553,-0.98127c4.59833,-0.01122 8.93933,-0.91463 13.53423,-1.01813c23.82411,-0.53667 47.72352,-0.0006 71.5531,-0.0006c32.68447,0 65.36894,0 98.0534,0c32.68447,0 65.36894,0 98.0534,0c19.4064,0 38.81281,0 58.21921,0c13.13545,0 26.20413,-0.54173 39.16209,1.89776c10.68994,2.01911 21.60358,4.47107 32.5013,5.10754c5.68101,0.33179 11.50451,-0.0053 17.1975,-0.0053h2.04278c0,0 2.55347,0 2.55347,2.5z" fill="#000000" stroke-width="0.5"/></g></g></svg>